G04 #@! TF.FileFunction,Copper,L1,Top,Signal*
%FSLAX46Y46*%
G04 Gerber Fmt 4.6, Leading zero omitted, Abs format (unit mm)*
G04 Created by KiCad (PCBNEW 4.0.2-stable) date 02-04-2017 12:22:52*
%MOMM*%
G01*
G04 APERTURE LIST*
%ADD10C,0.100000*%
%ADD11R,1.600000X0.960000*%
%ADD12R,1.600000X0.950000*%
%ADD13R,0.750000X0.800000*%
%ADD14R,0.800000X0.750000*%
%ADD15R,0.900000X0.500000*%
%ADD16R,0.500000X0.900000*%
%ADD17R,0.800000X0.254000*%
%ADD18R,0.254000X0.800000*%
%ADD19R,2.800000X1.900000*%
%ADD20R,0.960000X1.600000*%
%ADD21R,0.950000X1.600000*%
%ADD22C,0.600000*%
%ADD23C,0.906400*%
%ADD24C,0.706400*%
%ADD25C,0.203200*%
%ADD26C,0.510000*%
%ADD27C,0.250000*%
%ADD28C,0.500000*%
%ADD29C,0.254000*%
G04 APERTURE END LIST*
D10*
D11*
X15235200Y-7315200D03*
D12*
X15235200Y-6045200D03*
D13*
X4775200Y-12408600D03*
X4775200Y-10908600D03*
D14*
X4509200Y-6680200D03*
X3009200Y-6680200D03*
D13*
X12039600Y-10427400D03*
X12039600Y-8927400D03*
D14*
X11137200Y-3886200D03*
X12637200Y-3886200D03*
X4509200Y-8204200D03*
X3009200Y-8204200D03*
X7862000Y-2743200D03*
X6362000Y-2743200D03*
D13*
X13309600Y-9106600D03*
X13309600Y-7606600D03*
D15*
X9601200Y-3874200D03*
X9601200Y-2374200D03*
X12014200Y-7430200D03*
X12014200Y-5930200D03*
D16*
X11137200Y-2616200D03*
X12637200Y-2616200D03*
D17*
X6081200Y-6692200D03*
D18*
X6581200Y-5692200D03*
X7081200Y-5692200D03*
X7581200Y-5692200D03*
X8081200Y-5692200D03*
X8581200Y-5692200D03*
X9081200Y-5692200D03*
X9581200Y-5692200D03*
X10081200Y-5692200D03*
D17*
X10581200Y-6692200D03*
X10581200Y-7192200D03*
X10581200Y-7692200D03*
X10581200Y-8192200D03*
X6081200Y-7192200D03*
X6081200Y-7692200D03*
X6081200Y-8192200D03*
D18*
X10081200Y-9192200D03*
X9581200Y-9192200D03*
X9081200Y-9192200D03*
X8581200Y-9192200D03*
X8081200Y-9192200D03*
X7581200Y-9192200D03*
X7081200Y-9192200D03*
X6581200Y-9192200D03*
D19*
X8331200Y-7442200D03*
D11*
X792200Y-10998200D03*
D12*
X792200Y-12268200D03*
D11*
X15235200Y-10109200D03*
D12*
X15235200Y-8839200D03*
D20*
X5638800Y-792200D03*
D21*
X4368800Y-792200D03*
D20*
X9347200Y-792200D03*
D21*
X8077200Y-792200D03*
X12014200Y-14600200D03*
X3124200Y-14600200D03*
X4394200Y-14600200D03*
X10744200Y-14600200D03*
X9474200Y-14600200D03*
X5664200Y-14600200D03*
X6934200Y-14600200D03*
X8204200Y-14600200D03*
D11*
X792200Y-4267200D03*
D12*
X792200Y-5537200D03*
D16*
X13194600Y-12979400D03*
X14694600Y-12979400D03*
X13194600Y-11607800D03*
X14694600Y-11607800D03*
X2882200Y-2971800D03*
X4382200Y-2971800D03*
X2882200Y-4368800D03*
X4382200Y-4368800D03*
D22*
X1930400Y-3302000D03*
X1905000Y-2489200D03*
X1905000Y-1676400D03*
X13157200Y-5918200D03*
X14427200Y-1854200D03*
X14427200Y-2870200D03*
X14427200Y-3886200D03*
X7315200Y-6934200D03*
X8331200Y-6934200D03*
X9347200Y-6934200D03*
X9347200Y-7950200D03*
X8331200Y-7950200D03*
X7315200Y-7950200D03*
D23*
X2933700Y-9474200D03*
D24*
X5232400Y-2971800D03*
X10744200Y-10388600D03*
X9956800Y-10871200D03*
X5232400Y-3911600D03*
X9144000Y-10439400D03*
X6731000Y-4546600D03*
X5867400Y-10236200D03*
X6807200Y-10236200D03*
X5257800Y-5537200D03*
D25*
X7467600Y-10795000D02*
X7467600Y-10439400D01*
D26*
X6743000Y-12408600D02*
X7467600Y-11684000D01*
X7467600Y-11684000D02*
X7467600Y-10795000D01*
X4775200Y-12408600D02*
X6743000Y-12408600D01*
D25*
X7581200Y-10325800D02*
X7581200Y-9192200D01*
X7467600Y-10439400D02*
X7581200Y-10325800D01*
D26*
X2641600Y-12268200D02*
X4634800Y-12268200D01*
X4634800Y-12268200D02*
X4775200Y-12408600D01*
X1092200Y-12268200D02*
X2641600Y-12268200D01*
X2641600Y-12268200D02*
X2653600Y-12268200D01*
D27*
X14935200Y-7315200D02*
X13601000Y-7315200D01*
X13601000Y-7315200D02*
X13309600Y-7606600D01*
X1930400Y-3302000D02*
X1905000Y-3276600D01*
X1905000Y-3276600D02*
X1905000Y-2489200D01*
X12637200Y-3886200D02*
X14427200Y-3886200D01*
X14427200Y-2870200D02*
X14427200Y-1854200D01*
X6807200Y-7192200D02*
X7184200Y-7192200D01*
X7184200Y-7192200D02*
X7315200Y-7061200D01*
X7315200Y-7061200D02*
X7315200Y-6934200D01*
X8331200Y-6934200D02*
X9347200Y-6934200D01*
X9347200Y-7950200D02*
X8331200Y-7950200D01*
X7315200Y-7950200D02*
X7315200Y-7442200D01*
X7315200Y-7442200D02*
X8331200Y-7442200D01*
X10581200Y-6692200D02*
X9081200Y-6692200D01*
X9081200Y-6692200D02*
X8331200Y-7442200D01*
X6081200Y-7192200D02*
X6807200Y-7192200D01*
X6807200Y-7192200D02*
X8081200Y-7192200D01*
X8081200Y-7192200D02*
X8331200Y-7442200D01*
X6081200Y-7692200D02*
X8081200Y-7692200D01*
X8081200Y-7692200D02*
X8331200Y-7442200D01*
X10581200Y-7192200D02*
X8581200Y-7192200D01*
X8581200Y-7192200D02*
X8331200Y-7442200D01*
X10581200Y-7692200D02*
X8581200Y-7692200D01*
X8581200Y-7692200D02*
X8331200Y-7442200D01*
D28*
X2882200Y-4368800D02*
X2882200Y-5384800D01*
X3034600Y-5537200D02*
X3073400Y-5498400D01*
X3073400Y-5498400D02*
X3073400Y-5486400D01*
X3073400Y-5486400D02*
X3073400Y-5537200D01*
X2882200Y-5384800D02*
X3034600Y-5537200D01*
X2882200Y-2971800D02*
X2882200Y-4368800D01*
X4509200Y-6680200D02*
X4509200Y-5906200D01*
X4509200Y-5906200D02*
X4140200Y-5537200D01*
X4140200Y-5537200D02*
X3073400Y-5537200D01*
X3073400Y-5537200D02*
X711200Y-5537200D01*
D27*
X6081200Y-6692200D02*
X4521200Y-6692200D01*
X4521200Y-6692200D02*
X4509200Y-6680200D01*
D26*
X13309600Y-9106600D02*
X13309600Y-10109200D01*
X12991400Y-10427400D02*
X12039600Y-10427400D01*
X13309600Y-10109200D02*
X12991400Y-10427400D01*
D25*
X8581200Y-9192200D02*
X8303200Y-9192200D01*
X8081200Y-9192200D02*
X8303200Y-9192200D01*
D26*
X11062400Y-11785600D02*
X8991600Y-11785600D01*
X8991600Y-11785600D02*
X8305800Y-11099800D01*
X8305800Y-11099800D02*
X8305800Y-9194800D01*
X11062400Y-11785600D02*
X11912600Y-10935400D01*
D25*
X8303200Y-9192200D02*
X8305800Y-9194800D01*
D26*
X14935200Y-8839200D02*
X13577000Y-8839200D01*
X13577000Y-8839200D02*
X13309600Y-9106600D01*
D28*
X12192000Y-10668000D02*
X12180000Y-10668000D01*
X12180000Y-10668000D02*
X11912600Y-10935400D01*
D27*
X12141200Y-7430200D02*
X12141200Y-8180200D01*
X12141200Y-8180200D02*
X12129200Y-8192200D01*
X10581200Y-8192200D02*
X12129200Y-8192200D01*
X12141200Y-8204200D02*
X12141200Y-9017000D01*
X12129200Y-8192200D02*
X12141200Y-8204200D01*
X11137200Y-3886200D02*
X11137200Y-4077400D01*
X11137200Y-4077400D02*
X10566400Y-4648200D01*
X9581200Y-4922200D02*
X9855200Y-4648200D01*
X9581200Y-5692200D02*
X9581200Y-4922200D01*
X10566400Y-4648200D02*
X9855200Y-4648200D01*
X11137200Y-3886200D02*
X11137200Y-2616200D01*
D28*
X4509200Y-9422700D02*
X4509200Y-8204200D01*
X4457700Y-9474200D02*
X4509200Y-9422700D01*
D26*
X2933700Y-9474200D02*
X4457700Y-9474200D01*
D27*
X6081200Y-8192200D02*
X4521200Y-8192200D01*
X4521200Y-8192200D02*
X4509200Y-8204200D01*
X14935200Y-6045200D02*
X14935200Y-5765800D01*
X14935200Y-5765800D02*
X14401800Y-5232400D01*
X14401800Y-5232400D02*
X14020800Y-4851400D01*
X10335200Y-5692200D02*
X10871200Y-5156200D01*
X10335200Y-5692200D02*
X10081200Y-5692200D01*
X11176000Y-4851400D02*
X10871200Y-5156200D01*
X14020800Y-4851400D02*
X11176000Y-4851400D01*
X9081200Y-5692200D02*
X9081200Y-4394200D01*
X9081200Y-4394200D02*
X9601200Y-3874200D01*
D25*
X5232400Y-2971800D02*
X4382200Y-2971800D01*
D27*
X10335200Y-9192200D02*
X10744200Y-9601200D01*
X10081200Y-9192200D02*
X10335200Y-9192200D01*
X10744200Y-9601200D02*
X10744200Y-10388600D01*
X9956800Y-10236200D02*
X9956800Y-10871200D01*
X9581200Y-9192200D02*
X9581200Y-9697400D01*
X9575800Y-9855200D02*
X9956800Y-10236200D01*
X9575800Y-9702800D02*
X9575800Y-9855200D01*
X9581200Y-9697400D02*
X9575800Y-9702800D01*
X13194600Y-12979400D02*
X11226800Y-12979400D01*
X10744200Y-13462000D02*
X10744200Y-14300200D01*
X11226800Y-12979400D02*
X10744200Y-13462000D01*
X4839400Y-3911600D02*
X5232400Y-3911600D01*
X4839400Y-3911600D02*
X4382200Y-4368800D01*
X9081200Y-10224200D02*
X9081200Y-10376600D01*
X9081200Y-9192200D02*
X9081200Y-10224200D01*
X9081200Y-10376600D02*
X9144000Y-10439400D01*
X13194600Y-11607800D02*
X12674600Y-11607800D01*
X9474200Y-14020800D02*
X9474200Y-14300200D01*
X11023600Y-12471400D02*
X9474200Y-14020800D01*
X11811000Y-12471400D02*
X11023600Y-12471400D01*
X12674600Y-11607800D02*
X11811000Y-12471400D01*
D25*
X7081200Y-4896800D02*
X6731000Y-4546600D01*
X7081200Y-5692200D02*
X7081200Y-4896800D01*
D27*
X6251000Y-9192200D02*
X5867400Y-9575800D01*
X5867400Y-9575800D02*
X5867400Y-10236200D01*
X6581200Y-9192200D02*
X6251000Y-9192200D01*
X7081200Y-9192200D02*
X7081200Y-9962200D01*
X7081200Y-9962200D02*
X6807200Y-10236200D01*
D25*
X6581200Y-5692200D02*
X6426200Y-5537200D01*
X6426200Y-5537200D02*
X5257800Y-5537200D01*
D29*
G36*
X8224200Y-919200D02*
X8204200Y-919200D01*
X8204200Y-1762450D01*
X8260950Y-1819200D01*
X8597353Y-1819200D01*
X8605007Y-1816030D01*
X8586163Y-5839200D01*
X8517700Y-5839200D01*
X8517700Y-5819200D01*
X8144700Y-5819200D01*
X8144700Y-5839200D01*
X8017700Y-5839200D01*
X8017700Y-5819200D01*
X7644700Y-5819200D01*
X7644700Y-5839200D01*
X7570167Y-5839200D01*
X7573526Y-5121950D01*
X7644700Y-5121950D01*
X7644700Y-5565200D01*
X8017700Y-5565200D01*
X8017700Y-5121950D01*
X8144700Y-5121950D01*
X8144700Y-5565200D01*
X8517700Y-5565200D01*
X8517700Y-5121950D01*
X8460950Y-5065200D01*
X8409047Y-5065200D01*
X8331200Y-5097446D01*
X8253353Y-5065200D01*
X8201450Y-5065200D01*
X8144700Y-5121950D01*
X8017700Y-5121950D01*
X7960950Y-5065200D01*
X7909047Y-5065200D01*
X7831200Y-5097446D01*
X7753353Y-5065200D01*
X7701450Y-5065200D01*
X7644700Y-5121950D01*
X7573526Y-5121950D01*
X7581848Y-3345200D01*
X7678250Y-3345200D01*
X7735000Y-3288450D01*
X7735000Y-2870200D01*
X7989000Y-2870200D01*
X7989000Y-3288450D01*
X8045750Y-3345200D01*
X8307153Y-3345200D01*
X8390585Y-3310641D01*
X8454441Y-3246785D01*
X8489000Y-3163353D01*
X8489000Y-2926950D01*
X8432250Y-2870200D01*
X7989000Y-2870200D01*
X7735000Y-2870200D01*
X7715000Y-2870200D01*
X7715000Y-2616200D01*
X7735000Y-2616200D01*
X7735000Y-2197950D01*
X7989000Y-2197950D01*
X7989000Y-2616200D01*
X8432250Y-2616200D01*
X8489000Y-2559450D01*
X8489000Y-2323047D01*
X8454441Y-2239615D01*
X8390585Y-2175759D01*
X8307153Y-2141200D01*
X8045750Y-2141200D01*
X7989000Y-2197950D01*
X7735000Y-2197950D01*
X7678250Y-2141200D01*
X7587488Y-2141200D01*
X7588996Y-1819200D01*
X7893450Y-1819200D01*
X7950200Y-1762450D01*
X7950200Y-919200D01*
X7930200Y-919200D01*
X7930200Y-749300D01*
X8224200Y-749300D01*
X8224200Y-919200D01*
X8224200Y-919200D01*
G37*
X8224200Y-919200D02*
X8204200Y-919200D01*
X8204200Y-1762450D01*
X8260950Y-1819200D01*
X8597353Y-1819200D01*
X8605007Y-1816030D01*
X8586163Y-5839200D01*
X8517700Y-5839200D01*
X8517700Y-5819200D01*
X8144700Y-5819200D01*
X8144700Y-5839200D01*
X8017700Y-5839200D01*
X8017700Y-5819200D01*
X7644700Y-5819200D01*
X7644700Y-5839200D01*
X7570167Y-5839200D01*
X7573526Y-5121950D01*
X7644700Y-5121950D01*
X7644700Y-5565200D01*
X8017700Y-5565200D01*
X8017700Y-5121950D01*
X8144700Y-5121950D01*
X8144700Y-5565200D01*
X8517700Y-5565200D01*
X8517700Y-5121950D01*
X8460950Y-5065200D01*
X8409047Y-5065200D01*
X8331200Y-5097446D01*
X8253353Y-5065200D01*
X8201450Y-5065200D01*
X8144700Y-5121950D01*
X8017700Y-5121950D01*
X7960950Y-5065200D01*
X7909047Y-5065200D01*
X7831200Y-5097446D01*
X7753353Y-5065200D01*
X7701450Y-5065200D01*
X7644700Y-5121950D01*
X7573526Y-5121950D01*
X7581848Y-3345200D01*
X7678250Y-3345200D01*
X7735000Y-3288450D01*
X7735000Y-2870200D01*
X7989000Y-2870200D01*
X7989000Y-3288450D01*
X8045750Y-3345200D01*
X8307153Y-3345200D01*
X8390585Y-3310641D01*
X8454441Y-3246785D01*
X8489000Y-3163353D01*
X8489000Y-2926950D01*
X8432250Y-2870200D01*
X7989000Y-2870200D01*
X7735000Y-2870200D01*
X7715000Y-2870200D01*
X7715000Y-2616200D01*
X7735000Y-2616200D01*
X7735000Y-2197950D01*
X7989000Y-2197950D01*
X7989000Y-2616200D01*
X8432250Y-2616200D01*
X8489000Y-2559450D01*
X8489000Y-2323047D01*
X8454441Y-2239615D01*
X8390585Y-2175759D01*
X8307153Y-2141200D01*
X8045750Y-2141200D01*
X7989000Y-2197950D01*
X7735000Y-2197950D01*
X7678250Y-2141200D01*
X7587488Y-2141200D01*
X7588996Y-1819200D01*
X7893450Y-1819200D01*
X7950200Y-1762450D01*
X7950200Y-919200D01*
X7930200Y-919200D01*
X7930200Y-749300D01*
X8224200Y-749300D01*
X8224200Y-919200D01*
G36*
X14121556Y-9436565D02*
X14193873Y-9548949D01*
X14216371Y-9564321D01*
X14208200Y-9584047D01*
X14208200Y-9925450D01*
X14264950Y-9982200D01*
X15108200Y-9982200D01*
X15108200Y-9962200D01*
X15316200Y-9962200D01*
X15316200Y-14732000D01*
X12825869Y-14732000D01*
X12825869Y-13800200D01*
X12814489Y-13739721D01*
X12944600Y-13766069D01*
X13444600Y-13766069D01*
X13566965Y-13743044D01*
X13679349Y-13670727D01*
X13754744Y-13560383D01*
X13781269Y-13429400D01*
X13781269Y-13163150D01*
X14217600Y-13163150D01*
X14217600Y-13474553D01*
X14252159Y-13557985D01*
X14316015Y-13621841D01*
X14399447Y-13656400D01*
X14512850Y-13656400D01*
X14569600Y-13599650D01*
X14569600Y-13106400D01*
X14819600Y-13106400D01*
X14819600Y-13599650D01*
X14876350Y-13656400D01*
X14989753Y-13656400D01*
X15073185Y-13621841D01*
X15137041Y-13557985D01*
X15171600Y-13474553D01*
X15171600Y-13163150D01*
X15114850Y-13106400D01*
X14819600Y-13106400D01*
X14569600Y-13106400D01*
X14274350Y-13106400D01*
X14217600Y-13163150D01*
X13781269Y-13163150D01*
X13781269Y-12529400D01*
X13772773Y-12484247D01*
X14217600Y-12484247D01*
X14217600Y-12795650D01*
X14274350Y-12852400D01*
X14569600Y-12852400D01*
X14569600Y-12359150D01*
X14819600Y-12359150D01*
X14819600Y-12852400D01*
X15114850Y-12852400D01*
X15171600Y-12795650D01*
X15171600Y-12484247D01*
X15137041Y-12400815D01*
X15073185Y-12336959D01*
X14989753Y-12302400D01*
X14876350Y-12302400D01*
X14819600Y-12359150D01*
X14569600Y-12359150D01*
X14512850Y-12302400D01*
X14399447Y-12302400D01*
X14316015Y-12336959D01*
X14252159Y-12400815D01*
X14217600Y-12484247D01*
X13772773Y-12484247D01*
X13758244Y-12407035D01*
X13685927Y-12294651D01*
X13683528Y-12293012D01*
X13754744Y-12188783D01*
X13781269Y-12057800D01*
X13781269Y-11791550D01*
X14217600Y-11791550D01*
X14217600Y-12102953D01*
X14252159Y-12186385D01*
X14316015Y-12250241D01*
X14399447Y-12284800D01*
X14512850Y-12284800D01*
X14569600Y-12228050D01*
X14569600Y-11734800D01*
X14819600Y-11734800D01*
X14819600Y-12228050D01*
X14876350Y-12284800D01*
X14989753Y-12284800D01*
X15073185Y-12250241D01*
X15137041Y-12186385D01*
X15171600Y-12102953D01*
X15171600Y-11791550D01*
X15114850Y-11734800D01*
X14819600Y-11734800D01*
X14569600Y-11734800D01*
X14274350Y-11734800D01*
X14217600Y-11791550D01*
X13781269Y-11791550D01*
X13781269Y-11157800D01*
X13772773Y-11112647D01*
X14217600Y-11112647D01*
X14217600Y-11424050D01*
X14274350Y-11480800D01*
X14569600Y-11480800D01*
X14569600Y-10987550D01*
X14819600Y-10987550D01*
X14819600Y-11480800D01*
X15114850Y-11480800D01*
X15171600Y-11424050D01*
X15171600Y-11112647D01*
X15137041Y-11029215D01*
X15073185Y-10965359D01*
X14989753Y-10930800D01*
X14876350Y-10930800D01*
X14819600Y-10987550D01*
X14569600Y-10987550D01*
X14512850Y-10930800D01*
X14399447Y-10930800D01*
X14316015Y-10965359D01*
X14252159Y-11029215D01*
X14217600Y-11112647D01*
X13772773Y-11112647D01*
X13758244Y-11035435D01*
X13685927Y-10923051D01*
X13575583Y-10847656D01*
X13444600Y-10821131D01*
X13425267Y-10821131D01*
X13723399Y-10522999D01*
X13850254Y-10333146D01*
X13858249Y-10292950D01*
X14208200Y-10292950D01*
X14208200Y-10634353D01*
X14242759Y-10717785D01*
X14306615Y-10781641D01*
X14390047Y-10816200D01*
X15051450Y-10816200D01*
X15108200Y-10759450D01*
X15108200Y-10236200D01*
X14264950Y-10236200D01*
X14208200Y-10292950D01*
X13858249Y-10292950D01*
X13894800Y-10109200D01*
X13894800Y-9763724D01*
X13919349Y-9747927D01*
X13994744Y-9637583D01*
X14021269Y-9506600D01*
X14021269Y-9424400D01*
X14119267Y-9424400D01*
X14121556Y-9436565D01*
X14121556Y-9436565D01*
G37*
X14121556Y-9436565D02*
X14193873Y-9548949D01*
X14216371Y-9564321D01*
X14208200Y-9584047D01*
X14208200Y-9925450D01*
X14264950Y-9982200D01*
X15108200Y-9982200D01*
X15108200Y-9962200D01*
X15316200Y-9962200D01*
X15316200Y-14732000D01*
X12825869Y-14732000D01*
X12825869Y-13800200D01*
X12814489Y-13739721D01*
X12944600Y-13766069D01*
X13444600Y-13766069D01*
X13566965Y-13743044D01*
X13679349Y-13670727D01*
X13754744Y-13560383D01*
X13781269Y-13429400D01*
X13781269Y-13163150D01*
X14217600Y-13163150D01*
X14217600Y-13474553D01*
X14252159Y-13557985D01*
X14316015Y-13621841D01*
X14399447Y-13656400D01*
X14512850Y-13656400D01*
X14569600Y-13599650D01*
X14569600Y-13106400D01*
X14819600Y-13106400D01*
X14819600Y-13599650D01*
X14876350Y-13656400D01*
X14989753Y-13656400D01*
X15073185Y-13621841D01*
X15137041Y-13557985D01*
X15171600Y-13474553D01*
X15171600Y-13163150D01*
X15114850Y-13106400D01*
X14819600Y-13106400D01*
X14569600Y-13106400D01*
X14274350Y-13106400D01*
X14217600Y-13163150D01*
X13781269Y-13163150D01*
X13781269Y-12529400D01*
X13772773Y-12484247D01*
X14217600Y-12484247D01*
X14217600Y-12795650D01*
X14274350Y-12852400D01*
X14569600Y-12852400D01*
X14569600Y-12359150D01*
X14819600Y-12359150D01*
X14819600Y-12852400D01*
X15114850Y-12852400D01*
X15171600Y-12795650D01*
X15171600Y-12484247D01*
X15137041Y-12400815D01*
X15073185Y-12336959D01*
X14989753Y-12302400D01*
X14876350Y-12302400D01*
X14819600Y-12359150D01*
X14569600Y-12359150D01*
X14512850Y-12302400D01*
X14399447Y-12302400D01*
X14316015Y-12336959D01*
X14252159Y-12400815D01*
X14217600Y-12484247D01*
X13772773Y-12484247D01*
X13758244Y-12407035D01*
X13685927Y-12294651D01*
X13683528Y-12293012D01*
X13754744Y-12188783D01*
X13781269Y-12057800D01*
X13781269Y-11791550D01*
X14217600Y-11791550D01*
X14217600Y-12102953D01*
X14252159Y-12186385D01*
X14316015Y-12250241D01*
X14399447Y-12284800D01*
X14512850Y-12284800D01*
X14569600Y-12228050D01*
X14569600Y-11734800D01*
X14819600Y-11734800D01*
X14819600Y-12228050D01*
X14876350Y-12284800D01*
X14989753Y-12284800D01*
X15073185Y-12250241D01*
X15137041Y-12186385D01*
X15171600Y-12102953D01*
X15171600Y-11791550D01*
X15114850Y-11734800D01*
X14819600Y-11734800D01*
X14569600Y-11734800D01*
X14274350Y-11734800D01*
X14217600Y-11791550D01*
X13781269Y-11791550D01*
X13781269Y-11157800D01*
X13772773Y-11112647D01*
X14217600Y-11112647D01*
X14217600Y-11424050D01*
X14274350Y-11480800D01*
X14569600Y-11480800D01*
X14569600Y-10987550D01*
X14819600Y-10987550D01*
X14819600Y-11480800D01*
X15114850Y-11480800D01*
X15171600Y-11424050D01*
X15171600Y-11112647D01*
X15137041Y-11029215D01*
X15073185Y-10965359D01*
X14989753Y-10930800D01*
X14876350Y-10930800D01*
X14819600Y-10987550D01*
X14569600Y-10987550D01*
X14512850Y-10930800D01*
X14399447Y-10930800D01*
X14316015Y-10965359D01*
X14252159Y-11029215D01*
X14217600Y-11112647D01*
X13772773Y-11112647D01*
X13758244Y-11035435D01*
X13685927Y-10923051D01*
X13575583Y-10847656D01*
X13444600Y-10821131D01*
X13425267Y-10821131D01*
X13723399Y-10522999D01*
X13850254Y-10333146D01*
X13858249Y-10292950D01*
X14208200Y-10292950D01*
X14208200Y-10634353D01*
X14242759Y-10717785D01*
X14306615Y-10781641D01*
X14390047Y-10816200D01*
X15051450Y-10816200D01*
X15108200Y-10759450D01*
X15108200Y-10236200D01*
X14264950Y-10236200D01*
X14208200Y-10292950D01*
X13858249Y-10292950D01*
X13894800Y-10109200D01*
X13894800Y-9763724D01*
X13919349Y-9747927D01*
X13994744Y-9637583D01*
X14021269Y-9506600D01*
X14021269Y-9424400D01*
X14119267Y-9424400D01*
X14121556Y-9436565D01*
G36*
X8577801Y-12199399D02*
X8767654Y-12326254D01*
X8991600Y-12370800D01*
X10480450Y-12370800D01*
X9387719Y-13463531D01*
X8999200Y-13463531D01*
X8876835Y-13486556D01*
X8839871Y-13510341D01*
X8810183Y-13490056D01*
X8679200Y-13463531D01*
X7729200Y-13463531D01*
X7606835Y-13486556D01*
X7569871Y-13510341D01*
X7540183Y-13490056D01*
X7409200Y-13463531D01*
X6459200Y-13463531D01*
X6336835Y-13486556D01*
X6299871Y-13510341D01*
X6270183Y-13490056D01*
X6139200Y-13463531D01*
X5189200Y-13463531D01*
X5066835Y-13486556D01*
X5029871Y-13510341D01*
X5000183Y-13490056D01*
X4869200Y-13463531D01*
X3919200Y-13463531D01*
X3796835Y-13486556D01*
X3684451Y-13558873D01*
X3667976Y-13582985D01*
X3644353Y-13573200D01*
X3307950Y-13573200D01*
X3251200Y-13629950D01*
X3251200Y-14473200D01*
X3271200Y-14473200D01*
X3271200Y-14727200D01*
X3251200Y-14727200D01*
X3251200Y-14732000D01*
X2997200Y-14732000D01*
X2997200Y-14727200D01*
X2478950Y-14727200D01*
X2474150Y-14732000D01*
X787400Y-14732000D01*
X787400Y-13755047D01*
X2422200Y-13755047D01*
X2422200Y-14416450D01*
X2478950Y-14473200D01*
X2997200Y-14473200D01*
X2997200Y-13629950D01*
X2940450Y-13573200D01*
X2604047Y-13573200D01*
X2520615Y-13607759D01*
X2456759Y-13671615D01*
X2422200Y-13755047D01*
X787400Y-13755047D01*
X787400Y-13079869D01*
X1592200Y-13079869D01*
X1714565Y-13056844D01*
X1826949Y-12984527D01*
X1902344Y-12874183D01*
X1906553Y-12853400D01*
X4071961Y-12853400D01*
X4086556Y-12930965D01*
X4158873Y-13043349D01*
X4269217Y-13118744D01*
X4400200Y-13145269D01*
X5150200Y-13145269D01*
X5272565Y-13122244D01*
X5384949Y-13049927D01*
X5423299Y-12993800D01*
X6743000Y-12993800D01*
X6966946Y-12949254D01*
X7156799Y-12822399D01*
X7881399Y-12097799D01*
X8008254Y-11907946D01*
X8052800Y-11684000D01*
X8052800Y-11674398D01*
X8577801Y-12199399D01*
X8577801Y-12199399D01*
G37*
X8577801Y-12199399D02*
X8767654Y-12326254D01*
X8991600Y-12370800D01*
X10480450Y-12370800D01*
X9387719Y-13463531D01*
X8999200Y-13463531D01*
X8876835Y-13486556D01*
X8839871Y-13510341D01*
X8810183Y-13490056D01*
X8679200Y-13463531D01*
X7729200Y-13463531D01*
X7606835Y-13486556D01*
X7569871Y-13510341D01*
X7540183Y-13490056D01*
X7409200Y-13463531D01*
X6459200Y-13463531D01*
X6336835Y-13486556D01*
X6299871Y-13510341D01*
X6270183Y-13490056D01*
X6139200Y-13463531D01*
X5189200Y-13463531D01*
X5066835Y-13486556D01*
X5029871Y-13510341D01*
X5000183Y-13490056D01*
X4869200Y-13463531D01*
X3919200Y-13463531D01*
X3796835Y-13486556D01*
X3684451Y-13558873D01*
X3667976Y-13582985D01*
X3644353Y-13573200D01*
X3307950Y-13573200D01*
X3251200Y-13629950D01*
X3251200Y-14473200D01*
X3271200Y-14473200D01*
X3271200Y-14727200D01*
X3251200Y-14727200D01*
X3251200Y-14732000D01*
X2997200Y-14732000D01*
X2997200Y-14727200D01*
X2478950Y-14727200D01*
X2474150Y-14732000D01*
X787400Y-14732000D01*
X787400Y-13755047D01*
X2422200Y-13755047D01*
X2422200Y-14416450D01*
X2478950Y-14473200D01*
X2997200Y-14473200D01*
X2997200Y-13629950D01*
X2940450Y-13573200D01*
X2604047Y-13573200D01*
X2520615Y-13607759D01*
X2456759Y-13671615D01*
X2422200Y-13755047D01*
X787400Y-13755047D01*
X787400Y-13079869D01*
X1592200Y-13079869D01*
X1714565Y-13056844D01*
X1826949Y-12984527D01*
X1902344Y-12874183D01*
X1906553Y-12853400D01*
X4071961Y-12853400D01*
X4086556Y-12930965D01*
X4158873Y-13043349D01*
X4269217Y-13118744D01*
X4400200Y-13145269D01*
X5150200Y-13145269D01*
X5272565Y-13122244D01*
X5384949Y-13049927D01*
X5423299Y-12993800D01*
X6743000Y-12993800D01*
X6966946Y-12949254D01*
X7156799Y-12822399D01*
X7881399Y-12097799D01*
X8008254Y-11907946D01*
X8052800Y-11684000D01*
X8052800Y-11674398D01*
X8577801Y-12199399D01*
G36*
X2416759Y-6176615D02*
X2382200Y-6260047D01*
X2382200Y-6496450D01*
X2438950Y-6553200D01*
X2882200Y-6553200D01*
X2882200Y-6533200D01*
X3136200Y-6533200D01*
X3136200Y-6553200D01*
X3579450Y-6553200D01*
X3636200Y-6496450D01*
X3636200Y-6260047D01*
X3601641Y-6176615D01*
X3542426Y-6117400D01*
X3837877Y-6117400D01*
X3799056Y-6174217D01*
X3772531Y-6305200D01*
X3772531Y-7055200D01*
X3795556Y-7177565D01*
X3867873Y-7289949D01*
X3978217Y-7365344D01*
X4109200Y-7391869D01*
X4909200Y-7391869D01*
X5031565Y-7368844D01*
X5119203Y-7312450D01*
X5454200Y-7312450D01*
X5454200Y-7364353D01*
X5486446Y-7442200D01*
X5454200Y-7520047D01*
X5454200Y-7571950D01*
X5510950Y-7628700D01*
X5954200Y-7628700D01*
X5954200Y-7255700D01*
X5510950Y-7255700D01*
X5454200Y-7312450D01*
X5119203Y-7312450D01*
X5143949Y-7296527D01*
X5219344Y-7186183D01*
X5227198Y-7147400D01*
X5639379Y-7147400D01*
X5681200Y-7155869D01*
X6228200Y-7155869D01*
X6228200Y-7255700D01*
X6208200Y-7255700D01*
X6208200Y-7628700D01*
X6228200Y-7628700D01*
X6228200Y-7728531D01*
X5681200Y-7728531D01*
X5636192Y-7737000D01*
X5228520Y-7737000D01*
X5222844Y-7706835D01*
X5150527Y-7594451D01*
X5040183Y-7519056D01*
X4909200Y-7492531D01*
X4109200Y-7492531D01*
X3986835Y-7515556D01*
X3874451Y-7587873D01*
X3799056Y-7698217D01*
X3772531Y-7829200D01*
X3772531Y-8579200D01*
X3795556Y-8701565D01*
X3867873Y-8813949D01*
X3929000Y-8855715D01*
X3929000Y-8889000D01*
X3456450Y-8889000D01*
X3378040Y-8810453D01*
X3367798Y-8806200D01*
X3454353Y-8806200D01*
X3537785Y-8771641D01*
X3601641Y-8707785D01*
X3636200Y-8624353D01*
X3636200Y-8387950D01*
X3579450Y-8331200D01*
X3136200Y-8331200D01*
X3136200Y-8351200D01*
X2882200Y-8351200D01*
X2882200Y-8331200D01*
X2438950Y-8331200D01*
X2382200Y-8387950D01*
X2382200Y-8624353D01*
X2416759Y-8707785D01*
X2480615Y-8771641D01*
X2531532Y-8792732D01*
X2490519Y-8809678D01*
X2269953Y-9029860D01*
X2150436Y-9317688D01*
X2150164Y-9629344D01*
X2269178Y-9917381D01*
X2489360Y-10137947D01*
X2777188Y-10257464D01*
X3088844Y-10257736D01*
X3376881Y-10138722D01*
X3456341Y-10059400D01*
X4457700Y-10059400D01*
X4681646Y-10014854D01*
X4871499Y-9887999D01*
X4885739Y-9866687D01*
X4919463Y-9832963D01*
X5045235Y-9644733D01*
X5057306Y-9584047D01*
X5089400Y-9422700D01*
X5089400Y-8855628D01*
X5143949Y-8820527D01*
X5219344Y-8710183D01*
X5232058Y-8647400D01*
X5639379Y-8647400D01*
X5681200Y-8655869D01*
X6147710Y-8655869D01*
X6144056Y-8661217D01*
X6123577Y-8762346D01*
X6076803Y-8771650D01*
X6046048Y-8792200D01*
X5929125Y-8870325D01*
X5545525Y-9253925D01*
X5446850Y-9401602D01*
X5416233Y-9555527D01*
X5412200Y-9575800D01*
X5412200Y-9724975D01*
X5288379Y-9848579D01*
X5184118Y-10099667D01*
X5183959Y-10281600D01*
X4958950Y-10281600D01*
X4902200Y-10338350D01*
X4902200Y-10781600D01*
X5320450Y-10781600D01*
X5377200Y-10724850D01*
X5377200Y-10712462D01*
X5479779Y-10815221D01*
X5730867Y-10919482D01*
X6002740Y-10919719D01*
X6254009Y-10815896D01*
X6337277Y-10732774D01*
X6419579Y-10815221D01*
X6670667Y-10919482D01*
X6882400Y-10919667D01*
X6882400Y-11441602D01*
X6500602Y-11823400D01*
X5423411Y-11823400D01*
X5391527Y-11773851D01*
X5281183Y-11698456D01*
X5150200Y-11671931D01*
X4400200Y-11671931D01*
X4341374Y-11683000D01*
X1908133Y-11683000D01*
X1905844Y-11670835D01*
X1833527Y-11558451D01*
X1811029Y-11543079D01*
X1819200Y-11523353D01*
X1819200Y-11181950D01*
X1762450Y-11125200D01*
X919200Y-11125200D01*
X919200Y-11145200D01*
X787400Y-11145200D01*
X787400Y-11092350D01*
X4173200Y-11092350D01*
X4173200Y-11353753D01*
X4207759Y-11437185D01*
X4271615Y-11501041D01*
X4355047Y-11535600D01*
X4591450Y-11535600D01*
X4648200Y-11478850D01*
X4648200Y-11035600D01*
X4902200Y-11035600D01*
X4902200Y-11478850D01*
X4958950Y-11535600D01*
X5195353Y-11535600D01*
X5278785Y-11501041D01*
X5342641Y-11437185D01*
X5377200Y-11353753D01*
X5377200Y-11092350D01*
X5320450Y-11035600D01*
X4902200Y-11035600D01*
X4648200Y-11035600D01*
X4229950Y-11035600D01*
X4173200Y-11092350D01*
X787400Y-11092350D01*
X787400Y-10347950D01*
X919200Y-10347950D01*
X919200Y-10871200D01*
X1762450Y-10871200D01*
X1819200Y-10814450D01*
X1819200Y-10473047D01*
X1815224Y-10463447D01*
X4173200Y-10463447D01*
X4173200Y-10724850D01*
X4229950Y-10781600D01*
X4648200Y-10781600D01*
X4648200Y-10338350D01*
X4591450Y-10281600D01*
X4355047Y-10281600D01*
X4271615Y-10316159D01*
X4207759Y-10380015D01*
X4173200Y-10463447D01*
X1815224Y-10463447D01*
X1784641Y-10389615D01*
X1720785Y-10325759D01*
X1637353Y-10291200D01*
X975950Y-10291200D01*
X919200Y-10347950D01*
X787400Y-10347950D01*
X787400Y-7784047D01*
X2382200Y-7784047D01*
X2382200Y-8020450D01*
X2438950Y-8077200D01*
X2882200Y-8077200D01*
X2882200Y-7658950D01*
X3136200Y-7658950D01*
X3136200Y-8077200D01*
X3579450Y-8077200D01*
X3636200Y-8020450D01*
X3636200Y-7784047D01*
X3601641Y-7700615D01*
X3537785Y-7636759D01*
X3454353Y-7602200D01*
X3192950Y-7602200D01*
X3136200Y-7658950D01*
X2882200Y-7658950D01*
X2825450Y-7602200D01*
X2564047Y-7602200D01*
X2480615Y-7636759D01*
X2416759Y-7700615D01*
X2382200Y-7784047D01*
X787400Y-7784047D01*
X787400Y-6863950D01*
X2382200Y-6863950D01*
X2382200Y-7100353D01*
X2416759Y-7183785D01*
X2480615Y-7247641D01*
X2564047Y-7282200D01*
X2825450Y-7282200D01*
X2882200Y-7225450D01*
X2882200Y-6807200D01*
X3136200Y-6807200D01*
X3136200Y-7225450D01*
X3192950Y-7282200D01*
X3454353Y-7282200D01*
X3537785Y-7247641D01*
X3601641Y-7183785D01*
X3636200Y-7100353D01*
X3636200Y-6863950D01*
X3579450Y-6807200D01*
X3136200Y-6807200D01*
X2882200Y-6807200D01*
X2438950Y-6807200D01*
X2382200Y-6863950D01*
X787400Y-6863950D01*
X787400Y-6348869D01*
X1592200Y-6348869D01*
X1714565Y-6325844D01*
X1826949Y-6253527D01*
X1902344Y-6143183D01*
X1907565Y-6117400D01*
X2475974Y-6117400D01*
X2416759Y-6176615D01*
X2416759Y-6176615D01*
G37*
X2416759Y-6176615D02*
X2382200Y-6260047D01*
X2382200Y-6496450D01*
X2438950Y-6553200D01*
X2882200Y-6553200D01*
X2882200Y-6533200D01*
X3136200Y-6533200D01*
X3136200Y-6553200D01*
X3579450Y-6553200D01*
X3636200Y-6496450D01*
X3636200Y-6260047D01*
X3601641Y-6176615D01*
X3542426Y-6117400D01*
X3837877Y-6117400D01*
X3799056Y-6174217D01*
X3772531Y-6305200D01*
X3772531Y-7055200D01*
X3795556Y-7177565D01*
X3867873Y-7289949D01*
X3978217Y-7365344D01*
X4109200Y-7391869D01*
X4909200Y-7391869D01*
X5031565Y-7368844D01*
X5119203Y-7312450D01*
X5454200Y-7312450D01*
X5454200Y-7364353D01*
X5486446Y-7442200D01*
X5454200Y-7520047D01*
X5454200Y-7571950D01*
X5510950Y-7628700D01*
X5954200Y-7628700D01*
X5954200Y-7255700D01*
X5510950Y-7255700D01*
X5454200Y-7312450D01*
X5119203Y-7312450D01*
X5143949Y-7296527D01*
X5219344Y-7186183D01*
X5227198Y-7147400D01*
X5639379Y-7147400D01*
X5681200Y-7155869D01*
X6228200Y-7155869D01*
X6228200Y-7255700D01*
X6208200Y-7255700D01*
X6208200Y-7628700D01*
X6228200Y-7628700D01*
X6228200Y-7728531D01*
X5681200Y-7728531D01*
X5636192Y-7737000D01*
X5228520Y-7737000D01*
X5222844Y-7706835D01*
X5150527Y-7594451D01*
X5040183Y-7519056D01*
X4909200Y-7492531D01*
X4109200Y-7492531D01*
X3986835Y-7515556D01*
X3874451Y-7587873D01*
X3799056Y-7698217D01*
X3772531Y-7829200D01*
X3772531Y-8579200D01*
X3795556Y-8701565D01*
X3867873Y-8813949D01*
X3929000Y-8855715D01*
X3929000Y-8889000D01*
X3456450Y-8889000D01*
X3378040Y-8810453D01*
X3367798Y-8806200D01*
X3454353Y-8806200D01*
X3537785Y-8771641D01*
X3601641Y-8707785D01*
X3636200Y-8624353D01*
X3636200Y-8387950D01*
X3579450Y-8331200D01*
X3136200Y-8331200D01*
X3136200Y-8351200D01*
X2882200Y-8351200D01*
X2882200Y-8331200D01*
X2438950Y-8331200D01*
X2382200Y-8387950D01*
X2382200Y-8624353D01*
X2416759Y-8707785D01*
X2480615Y-8771641D01*
X2531532Y-8792732D01*
X2490519Y-8809678D01*
X2269953Y-9029860D01*
X2150436Y-9317688D01*
X2150164Y-9629344D01*
X2269178Y-9917381D01*
X2489360Y-10137947D01*
X2777188Y-10257464D01*
X3088844Y-10257736D01*
X3376881Y-10138722D01*
X3456341Y-10059400D01*
X4457700Y-10059400D01*
X4681646Y-10014854D01*
X4871499Y-9887999D01*
X4885739Y-9866687D01*
X4919463Y-9832963D01*
X5045235Y-9644733D01*
X5057306Y-9584047D01*
X5089400Y-9422700D01*
X5089400Y-8855628D01*
X5143949Y-8820527D01*
X5219344Y-8710183D01*
X5232058Y-8647400D01*
X5639379Y-8647400D01*
X5681200Y-8655869D01*
X6147710Y-8655869D01*
X6144056Y-8661217D01*
X6123577Y-8762346D01*
X6076803Y-8771650D01*
X6046048Y-8792200D01*
X5929125Y-8870325D01*
X5545525Y-9253925D01*
X5446850Y-9401602D01*
X5416233Y-9555527D01*
X5412200Y-9575800D01*
X5412200Y-9724975D01*
X5288379Y-9848579D01*
X5184118Y-10099667D01*
X5183959Y-10281600D01*
X4958950Y-10281600D01*
X4902200Y-10338350D01*
X4902200Y-10781600D01*
X5320450Y-10781600D01*
X5377200Y-10724850D01*
X5377200Y-10712462D01*
X5479779Y-10815221D01*
X5730867Y-10919482D01*
X6002740Y-10919719D01*
X6254009Y-10815896D01*
X6337277Y-10732774D01*
X6419579Y-10815221D01*
X6670667Y-10919482D01*
X6882400Y-10919667D01*
X6882400Y-11441602D01*
X6500602Y-11823400D01*
X5423411Y-11823400D01*
X5391527Y-11773851D01*
X5281183Y-11698456D01*
X5150200Y-11671931D01*
X4400200Y-11671931D01*
X4341374Y-11683000D01*
X1908133Y-11683000D01*
X1905844Y-11670835D01*
X1833527Y-11558451D01*
X1811029Y-11543079D01*
X1819200Y-11523353D01*
X1819200Y-11181950D01*
X1762450Y-11125200D01*
X919200Y-11125200D01*
X919200Y-11145200D01*
X787400Y-11145200D01*
X787400Y-11092350D01*
X4173200Y-11092350D01*
X4173200Y-11353753D01*
X4207759Y-11437185D01*
X4271615Y-11501041D01*
X4355047Y-11535600D01*
X4591450Y-11535600D01*
X4648200Y-11478850D01*
X4648200Y-11035600D01*
X4902200Y-11035600D01*
X4902200Y-11478850D01*
X4958950Y-11535600D01*
X5195353Y-11535600D01*
X5278785Y-11501041D01*
X5342641Y-11437185D01*
X5377200Y-11353753D01*
X5377200Y-11092350D01*
X5320450Y-11035600D01*
X4902200Y-11035600D01*
X4648200Y-11035600D01*
X4229950Y-11035600D01*
X4173200Y-11092350D01*
X787400Y-11092350D01*
X787400Y-10347950D01*
X919200Y-10347950D01*
X919200Y-10871200D01*
X1762450Y-10871200D01*
X1819200Y-10814450D01*
X1819200Y-10473047D01*
X1815224Y-10463447D01*
X4173200Y-10463447D01*
X4173200Y-10724850D01*
X4229950Y-10781600D01*
X4648200Y-10781600D01*
X4648200Y-10338350D01*
X4591450Y-10281600D01*
X4355047Y-10281600D01*
X4271615Y-10316159D01*
X4207759Y-10380015D01*
X4173200Y-10463447D01*
X1815224Y-10463447D01*
X1784641Y-10389615D01*
X1720785Y-10325759D01*
X1637353Y-10291200D01*
X975950Y-10291200D01*
X919200Y-10347950D01*
X787400Y-10347950D01*
X787400Y-7784047D01*
X2382200Y-7784047D01*
X2382200Y-8020450D01*
X2438950Y-8077200D01*
X2882200Y-8077200D01*
X2882200Y-7658950D01*
X3136200Y-7658950D01*
X3136200Y-8077200D01*
X3579450Y-8077200D01*
X3636200Y-8020450D01*
X3636200Y-7784047D01*
X3601641Y-7700615D01*
X3537785Y-7636759D01*
X3454353Y-7602200D01*
X3192950Y-7602200D01*
X3136200Y-7658950D01*
X2882200Y-7658950D01*
X2825450Y-7602200D01*
X2564047Y-7602200D01*
X2480615Y-7636759D01*
X2416759Y-7700615D01*
X2382200Y-7784047D01*
X787400Y-7784047D01*
X787400Y-6863950D01*
X2382200Y-6863950D01*
X2382200Y-7100353D01*
X2416759Y-7183785D01*
X2480615Y-7247641D01*
X2564047Y-7282200D01*
X2825450Y-7282200D01*
X2882200Y-7225450D01*
X2882200Y-6807200D01*
X3136200Y-6807200D01*
X3136200Y-7225450D01*
X3192950Y-7282200D01*
X3454353Y-7282200D01*
X3537785Y-7247641D01*
X3601641Y-7183785D01*
X3636200Y-7100353D01*
X3636200Y-6863950D01*
X3579450Y-6807200D01*
X3136200Y-6807200D01*
X2882200Y-6807200D01*
X2438950Y-6807200D01*
X2382200Y-6863950D01*
X787400Y-6863950D01*
X787400Y-6348869D01*
X1592200Y-6348869D01*
X1714565Y-6325844D01*
X1826949Y-6253527D01*
X1902344Y-6143183D01*
X1907565Y-6117400D01*
X2475974Y-6117400D01*
X2416759Y-6176615D01*
G36*
X14098531Y-5572881D02*
X14098531Y-6520200D01*
X14121556Y-6642565D01*
X14193873Y-6754949D01*
X14216371Y-6770321D01*
X14208200Y-6790047D01*
X14208200Y-7131450D01*
X14264950Y-7188200D01*
X15108200Y-7188200D01*
X15108200Y-7168200D01*
X15316200Y-7168200D01*
X15316200Y-8027531D01*
X14435200Y-8027531D01*
X14312835Y-8050556D01*
X14200451Y-8122873D01*
X14125056Y-8233217D01*
X14120847Y-8254000D01*
X13577000Y-8254000D01*
X13353054Y-8298546D01*
X13246218Y-8369931D01*
X12934600Y-8369931D01*
X12812235Y-8392956D01*
X12735288Y-8442470D01*
X12728244Y-8405035D01*
X12655927Y-8292651D01*
X12596400Y-8251978D01*
X12596400Y-8204200D01*
X12594013Y-8192200D01*
X12596400Y-8180200D01*
X12596400Y-7987515D01*
X12698949Y-7921527D01*
X12707600Y-7908866D01*
X12707600Y-8051753D01*
X12742159Y-8135185D01*
X12806015Y-8199041D01*
X12889447Y-8233600D01*
X13125850Y-8233600D01*
X13182600Y-8176850D01*
X13182600Y-7733600D01*
X13436600Y-7733600D01*
X13436600Y-8176850D01*
X13493350Y-8233600D01*
X13729753Y-8233600D01*
X13813185Y-8199041D01*
X13877041Y-8135185D01*
X13911600Y-8051753D01*
X13911600Y-7790350D01*
X13854850Y-7733600D01*
X13436600Y-7733600D01*
X13182600Y-7733600D01*
X13162600Y-7733600D01*
X13162600Y-7498950D01*
X14208200Y-7498950D01*
X14208200Y-7840353D01*
X14242759Y-7923785D01*
X14306615Y-7987641D01*
X14390047Y-8022200D01*
X15051450Y-8022200D01*
X15108200Y-7965450D01*
X15108200Y-7442200D01*
X14264950Y-7442200D01*
X14208200Y-7498950D01*
X13162600Y-7498950D01*
X13162600Y-7479600D01*
X13182600Y-7479600D01*
X13182600Y-7036350D01*
X13436600Y-7036350D01*
X13436600Y-7479600D01*
X13854850Y-7479600D01*
X13911600Y-7422850D01*
X13911600Y-7161447D01*
X13877041Y-7078015D01*
X13813185Y-7014159D01*
X13729753Y-6979600D01*
X13493350Y-6979600D01*
X13436600Y-7036350D01*
X13182600Y-7036350D01*
X13125850Y-6979600D01*
X12889447Y-6979600D01*
X12806015Y-7014159D01*
X12771773Y-7048401D01*
X12705527Y-6945451D01*
X12595183Y-6870056D01*
X12464200Y-6843531D01*
X11564200Y-6843531D01*
X11441835Y-6866556D01*
X11329451Y-6938873D01*
X11254056Y-7049217D01*
X11227531Y-7180200D01*
X11227531Y-7680200D01*
X11238219Y-7737000D01*
X11023021Y-7737000D01*
X10981200Y-7728531D01*
X10434200Y-7728531D01*
X10434200Y-7628700D01*
X10454200Y-7628700D01*
X10454200Y-7255700D01*
X10708200Y-7255700D01*
X10708200Y-7628700D01*
X11151450Y-7628700D01*
X11208200Y-7571950D01*
X11208200Y-7520047D01*
X11175954Y-7442200D01*
X11208200Y-7364353D01*
X11208200Y-7312450D01*
X11151450Y-7255700D01*
X10708200Y-7255700D01*
X10454200Y-7255700D01*
X10434200Y-7255700D01*
X10434200Y-7128700D01*
X10454200Y-7128700D01*
X10454200Y-6755700D01*
X10708200Y-6755700D01*
X10708200Y-7128700D01*
X11151450Y-7128700D01*
X11208200Y-7071950D01*
X11208200Y-7020047D01*
X11175954Y-6942200D01*
X11208200Y-6864353D01*
X11208200Y-6812450D01*
X11151450Y-6755700D01*
X10708200Y-6755700D01*
X10454200Y-6755700D01*
X10434200Y-6755700D01*
X10434200Y-6628700D01*
X10454200Y-6628700D01*
X10454200Y-6394950D01*
X10708200Y-6394950D01*
X10708200Y-6628700D01*
X11151450Y-6628700D01*
X11208200Y-6571950D01*
X11208200Y-6520047D01*
X11173641Y-6436615D01*
X11109785Y-6372759D01*
X11026353Y-6338200D01*
X10764950Y-6338200D01*
X10708200Y-6394950D01*
X10454200Y-6394950D01*
X10412421Y-6353171D01*
X10442949Y-6333527D01*
X10518344Y-6223183D01*
X10540869Y-6111950D01*
X11337200Y-6111950D01*
X11337200Y-6225353D01*
X11371759Y-6308785D01*
X11435615Y-6372641D01*
X11519047Y-6407200D01*
X11830450Y-6407200D01*
X11887200Y-6350450D01*
X11887200Y-6055200D01*
X12141200Y-6055200D01*
X12141200Y-6350450D01*
X12197950Y-6407200D01*
X12509353Y-6407200D01*
X12592785Y-6372641D01*
X12656641Y-6308785D01*
X12691200Y-6225353D01*
X12691200Y-6111950D01*
X12634450Y-6055200D01*
X12141200Y-6055200D01*
X11887200Y-6055200D01*
X11393950Y-6055200D01*
X11337200Y-6111950D01*
X10540869Y-6111950D01*
X10544869Y-6092200D01*
X10544869Y-6089049D01*
X10657075Y-6014075D01*
X11036103Y-5635047D01*
X11337200Y-5635047D01*
X11337200Y-5748450D01*
X11393950Y-5805200D01*
X11887200Y-5805200D01*
X11887200Y-5509950D01*
X12141200Y-5509950D01*
X12141200Y-5805200D01*
X12634450Y-5805200D01*
X12691200Y-5748450D01*
X12691200Y-5635047D01*
X12656641Y-5551615D01*
X12592785Y-5487759D01*
X12509353Y-5453200D01*
X12197950Y-5453200D01*
X12141200Y-5509950D01*
X11887200Y-5509950D01*
X11830450Y-5453200D01*
X11519047Y-5453200D01*
X11435615Y-5487759D01*
X11371759Y-5551615D01*
X11337200Y-5635047D01*
X11036103Y-5635047D01*
X11364550Y-5306600D01*
X13832250Y-5306600D01*
X14098531Y-5572881D01*
X14098531Y-5572881D01*
G37*
X14098531Y-5572881D02*
X14098531Y-6520200D01*
X14121556Y-6642565D01*
X14193873Y-6754949D01*
X14216371Y-6770321D01*
X14208200Y-6790047D01*
X14208200Y-7131450D01*
X14264950Y-7188200D01*
X15108200Y-7188200D01*
X15108200Y-7168200D01*
X15316200Y-7168200D01*
X15316200Y-8027531D01*
X14435200Y-8027531D01*
X14312835Y-8050556D01*
X14200451Y-8122873D01*
X14125056Y-8233217D01*
X14120847Y-8254000D01*
X13577000Y-8254000D01*
X13353054Y-8298546D01*
X13246218Y-8369931D01*
X12934600Y-8369931D01*
X12812235Y-8392956D01*
X12735288Y-8442470D01*
X12728244Y-8405035D01*
X12655927Y-8292651D01*
X12596400Y-8251978D01*
X12596400Y-8204200D01*
X12594013Y-8192200D01*
X12596400Y-8180200D01*
X12596400Y-7987515D01*
X12698949Y-7921527D01*
X12707600Y-7908866D01*
X12707600Y-8051753D01*
X12742159Y-8135185D01*
X12806015Y-8199041D01*
X12889447Y-8233600D01*
X13125850Y-8233600D01*
X13182600Y-8176850D01*
X13182600Y-7733600D01*
X13436600Y-7733600D01*
X13436600Y-8176850D01*
X13493350Y-8233600D01*
X13729753Y-8233600D01*
X13813185Y-8199041D01*
X13877041Y-8135185D01*
X13911600Y-8051753D01*
X13911600Y-7790350D01*
X13854850Y-7733600D01*
X13436600Y-7733600D01*
X13182600Y-7733600D01*
X13162600Y-7733600D01*
X13162600Y-7498950D01*
X14208200Y-7498950D01*
X14208200Y-7840353D01*
X14242759Y-7923785D01*
X14306615Y-7987641D01*
X14390047Y-8022200D01*
X15051450Y-8022200D01*
X15108200Y-7965450D01*
X15108200Y-7442200D01*
X14264950Y-7442200D01*
X14208200Y-7498950D01*
X13162600Y-7498950D01*
X13162600Y-7479600D01*
X13182600Y-7479600D01*
X13182600Y-7036350D01*
X13436600Y-7036350D01*
X13436600Y-7479600D01*
X13854850Y-7479600D01*
X13911600Y-7422850D01*
X13911600Y-7161447D01*
X13877041Y-7078015D01*
X13813185Y-7014159D01*
X13729753Y-6979600D01*
X13493350Y-6979600D01*
X13436600Y-7036350D01*
X13182600Y-7036350D01*
X13125850Y-6979600D01*
X12889447Y-6979600D01*
X12806015Y-7014159D01*
X12771773Y-7048401D01*
X12705527Y-6945451D01*
X12595183Y-6870056D01*
X12464200Y-6843531D01*
X11564200Y-6843531D01*
X11441835Y-6866556D01*
X11329451Y-6938873D01*
X11254056Y-7049217D01*
X11227531Y-7180200D01*
X11227531Y-7680200D01*
X11238219Y-7737000D01*
X11023021Y-7737000D01*
X10981200Y-7728531D01*
X10434200Y-7728531D01*
X10434200Y-7628700D01*
X10454200Y-7628700D01*
X10454200Y-7255700D01*
X10708200Y-7255700D01*
X10708200Y-7628700D01*
X11151450Y-7628700D01*
X11208200Y-7571950D01*
X11208200Y-7520047D01*
X11175954Y-7442200D01*
X11208200Y-7364353D01*
X11208200Y-7312450D01*
X11151450Y-7255700D01*
X10708200Y-7255700D01*
X10454200Y-7255700D01*
X10434200Y-7255700D01*
X10434200Y-7128700D01*
X10454200Y-7128700D01*
X10454200Y-6755700D01*
X10708200Y-6755700D01*
X10708200Y-7128700D01*
X11151450Y-7128700D01*
X11208200Y-7071950D01*
X11208200Y-7020047D01*
X11175954Y-6942200D01*
X11208200Y-6864353D01*
X11208200Y-6812450D01*
X11151450Y-6755700D01*
X10708200Y-6755700D01*
X10454200Y-6755700D01*
X10434200Y-6755700D01*
X10434200Y-6628700D01*
X10454200Y-6628700D01*
X10454200Y-6394950D01*
X10708200Y-6394950D01*
X10708200Y-6628700D01*
X11151450Y-6628700D01*
X11208200Y-6571950D01*
X11208200Y-6520047D01*
X11173641Y-6436615D01*
X11109785Y-6372759D01*
X11026353Y-6338200D01*
X10764950Y-6338200D01*
X10708200Y-6394950D01*
X10454200Y-6394950D01*
X10412421Y-6353171D01*
X10442949Y-6333527D01*
X10518344Y-6223183D01*
X10540869Y-6111950D01*
X11337200Y-6111950D01*
X11337200Y-6225353D01*
X11371759Y-6308785D01*
X11435615Y-6372641D01*
X11519047Y-6407200D01*
X11830450Y-6407200D01*
X11887200Y-6350450D01*
X11887200Y-6055200D01*
X12141200Y-6055200D01*
X12141200Y-6350450D01*
X12197950Y-6407200D01*
X12509353Y-6407200D01*
X12592785Y-6372641D01*
X12656641Y-6308785D01*
X12691200Y-6225353D01*
X12691200Y-6111950D01*
X12634450Y-6055200D01*
X12141200Y-6055200D01*
X11887200Y-6055200D01*
X11393950Y-6055200D01*
X11337200Y-6111950D01*
X10540869Y-6111950D01*
X10544869Y-6092200D01*
X10544869Y-6089049D01*
X10657075Y-6014075D01*
X11036103Y-5635047D01*
X11337200Y-5635047D01*
X11337200Y-5748450D01*
X11393950Y-5805200D01*
X11887200Y-5805200D01*
X11887200Y-5509950D01*
X12141200Y-5509950D01*
X12141200Y-5805200D01*
X12634450Y-5805200D01*
X12691200Y-5748450D01*
X12691200Y-5635047D01*
X12656641Y-5551615D01*
X12592785Y-5487759D01*
X12509353Y-5453200D01*
X12197950Y-5453200D01*
X12141200Y-5509950D01*
X11887200Y-5509950D01*
X11830450Y-5453200D01*
X11519047Y-5453200D01*
X11435615Y-5487759D01*
X11371759Y-5551615D01*
X11337200Y-5635047D01*
X11036103Y-5635047D01*
X11364550Y-5306600D01*
X13832250Y-5306600D01*
X14098531Y-5572881D01*
G36*
X9954200Y-7364353D02*
X9986446Y-7442200D01*
X9954200Y-7520047D01*
X9954200Y-7621950D01*
X9901450Y-7569200D01*
X8458200Y-7569200D01*
X8458200Y-7589200D01*
X8204200Y-7589200D01*
X8204200Y-7569200D01*
X6760950Y-7569200D01*
X6708200Y-7621950D01*
X6708200Y-7520047D01*
X6675954Y-7442200D01*
X6708200Y-7364353D01*
X6708200Y-7262450D01*
X6760950Y-7315200D01*
X8204200Y-7315200D01*
X8204200Y-7295200D01*
X8458200Y-7295200D01*
X8458200Y-7315200D01*
X9901450Y-7315200D01*
X9954200Y-7262450D01*
X9954200Y-7364353D01*
X9954200Y-7364353D01*
G37*
X9954200Y-7364353D02*
X9986446Y-7442200D01*
X9954200Y-7520047D01*
X9954200Y-7621950D01*
X9901450Y-7569200D01*
X8458200Y-7569200D01*
X8458200Y-7589200D01*
X8204200Y-7589200D01*
X8204200Y-7569200D01*
X6760950Y-7569200D01*
X6708200Y-7621950D01*
X6708200Y-7520047D01*
X6675954Y-7442200D01*
X6708200Y-7364353D01*
X6708200Y-7262450D01*
X6760950Y-7315200D01*
X8204200Y-7315200D01*
X8204200Y-7295200D01*
X8458200Y-7295200D01*
X8458200Y-7315200D01*
X9901450Y-7315200D01*
X9954200Y-7262450D01*
X9954200Y-7364353D01*
G36*
X15316200Y-5233531D02*
X15046681Y-5233531D01*
X14342675Y-4529525D01*
X14194998Y-4430850D01*
X14020800Y-4396200D01*
X13223226Y-4396200D01*
X13229641Y-4389785D01*
X13264200Y-4306353D01*
X13264200Y-4069950D01*
X13207450Y-4013200D01*
X12764200Y-4013200D01*
X12764200Y-4033200D01*
X12510200Y-4033200D01*
X12510200Y-4013200D01*
X12066950Y-4013200D01*
X12010200Y-4069950D01*
X12010200Y-4306353D01*
X12044759Y-4389785D01*
X12051174Y-4396200D01*
X11844599Y-4396200D01*
X11847344Y-4392183D01*
X11873869Y-4261200D01*
X11873869Y-3511200D01*
X11865373Y-3466047D01*
X12010200Y-3466047D01*
X12010200Y-3702450D01*
X12066950Y-3759200D01*
X12510200Y-3759200D01*
X12510200Y-3340950D01*
X12458950Y-3289700D01*
X12512200Y-3236450D01*
X12512200Y-2743200D01*
X12762200Y-2743200D01*
X12762200Y-3236450D01*
X12815450Y-3289700D01*
X12764200Y-3340950D01*
X12764200Y-3759200D01*
X13207450Y-3759200D01*
X13264200Y-3702450D01*
X13264200Y-3466047D01*
X13229641Y-3382615D01*
X13165785Y-3318759D01*
X13082353Y-3284200D01*
X12954081Y-3284200D01*
X13015785Y-3258641D01*
X13079641Y-3194785D01*
X13114200Y-3111353D01*
X13114200Y-2799950D01*
X13057450Y-2743200D01*
X12762200Y-2743200D01*
X12512200Y-2743200D01*
X12216950Y-2743200D01*
X12160200Y-2799950D01*
X12160200Y-3111353D01*
X12194759Y-3194785D01*
X12258615Y-3258641D01*
X12320319Y-3284200D01*
X12192047Y-3284200D01*
X12108615Y-3318759D01*
X12044759Y-3382615D01*
X12010200Y-3466047D01*
X11865373Y-3466047D01*
X11850844Y-3388835D01*
X11778527Y-3276451D01*
X11686259Y-3213407D01*
X11697344Y-3197183D01*
X11723869Y-3066200D01*
X11723869Y-2166200D01*
X11715373Y-2121047D01*
X12160200Y-2121047D01*
X12160200Y-2432450D01*
X12216950Y-2489200D01*
X12512200Y-2489200D01*
X12512200Y-1995950D01*
X12762200Y-1995950D01*
X12762200Y-2489200D01*
X13057450Y-2489200D01*
X13114200Y-2432450D01*
X13114200Y-2121047D01*
X13079641Y-2037615D01*
X13015785Y-1973759D01*
X12932353Y-1939200D01*
X12818950Y-1939200D01*
X12762200Y-1995950D01*
X12512200Y-1995950D01*
X12455450Y-1939200D01*
X12342047Y-1939200D01*
X12258615Y-1973759D01*
X12194759Y-2037615D01*
X12160200Y-2121047D01*
X11715373Y-2121047D01*
X11700844Y-2043835D01*
X11628527Y-1931451D01*
X11518183Y-1856056D01*
X11387200Y-1829531D01*
X10887200Y-1829531D01*
X10764835Y-1852556D01*
X10652451Y-1924873D01*
X10577056Y-2035217D01*
X10550531Y-2166200D01*
X10550531Y-3066200D01*
X10573556Y-3188565D01*
X10589735Y-3213708D01*
X10502451Y-3269873D01*
X10427056Y-3380217D01*
X10400531Y-3511200D01*
X10400531Y-4170319D01*
X10377850Y-4193000D01*
X10373937Y-4193000D01*
X10387869Y-4124200D01*
X10387869Y-3624200D01*
X10364844Y-3501835D01*
X10292527Y-3389451D01*
X10182183Y-3314056D01*
X10051200Y-3287531D01*
X9151200Y-3287531D01*
X9042400Y-3308004D01*
X9042400Y-2824836D01*
X9106047Y-2851200D01*
X9417450Y-2851200D01*
X9474200Y-2794450D01*
X9474200Y-2499200D01*
X9728200Y-2499200D01*
X9728200Y-2794450D01*
X9784950Y-2851200D01*
X10096353Y-2851200D01*
X10179785Y-2816641D01*
X10243641Y-2752785D01*
X10278200Y-2669353D01*
X10278200Y-2555950D01*
X10221450Y-2499200D01*
X9728200Y-2499200D01*
X9474200Y-2499200D01*
X9454200Y-2499200D01*
X9454200Y-2249200D01*
X9474200Y-2249200D01*
X9474200Y-1953950D01*
X9728200Y-1953950D01*
X9728200Y-2249200D01*
X10221450Y-2249200D01*
X10278200Y-2192450D01*
X10278200Y-2079047D01*
X10243641Y-1995615D01*
X10179785Y-1931759D01*
X10096353Y-1897200D01*
X9784950Y-1897200D01*
X9728200Y-1953950D01*
X9474200Y-1953950D01*
X9417450Y-1897200D01*
X9106047Y-1897200D01*
X9042400Y-1923564D01*
X9042400Y-1819200D01*
X9163450Y-1819200D01*
X9220200Y-1762450D01*
X9220200Y-919200D01*
X9474200Y-919200D01*
X9474200Y-1762450D01*
X9530950Y-1819200D01*
X9872353Y-1819200D01*
X9955785Y-1784641D01*
X10019641Y-1720785D01*
X10054200Y-1637353D01*
X10054200Y-975950D01*
X9997450Y-919200D01*
X9474200Y-919200D01*
X9220200Y-919200D01*
X9200200Y-919200D01*
X9200200Y-787400D01*
X15316200Y-787400D01*
X15316200Y-5233531D01*
X15316200Y-5233531D01*
G37*
X15316200Y-5233531D02*
X15046681Y-5233531D01*
X14342675Y-4529525D01*
X14194998Y-4430850D01*
X14020800Y-4396200D01*
X13223226Y-4396200D01*
X13229641Y-4389785D01*
X13264200Y-4306353D01*
X13264200Y-4069950D01*
X13207450Y-4013200D01*
X12764200Y-4013200D01*
X12764200Y-4033200D01*
X12510200Y-4033200D01*
X12510200Y-4013200D01*
X12066950Y-4013200D01*
X12010200Y-4069950D01*
X12010200Y-4306353D01*
X12044759Y-4389785D01*
X12051174Y-4396200D01*
X11844599Y-4396200D01*
X11847344Y-4392183D01*
X11873869Y-4261200D01*
X11873869Y-3511200D01*
X11865373Y-3466047D01*
X12010200Y-3466047D01*
X12010200Y-3702450D01*
X12066950Y-3759200D01*
X12510200Y-3759200D01*
X12510200Y-3340950D01*
X12458950Y-3289700D01*
X12512200Y-3236450D01*
X12512200Y-2743200D01*
X12762200Y-2743200D01*
X12762200Y-3236450D01*
X12815450Y-3289700D01*
X12764200Y-3340950D01*
X12764200Y-3759200D01*
X13207450Y-3759200D01*
X13264200Y-3702450D01*
X13264200Y-3466047D01*
X13229641Y-3382615D01*
X13165785Y-3318759D01*
X13082353Y-3284200D01*
X12954081Y-3284200D01*
X13015785Y-3258641D01*
X13079641Y-3194785D01*
X13114200Y-3111353D01*
X13114200Y-2799950D01*
X13057450Y-2743200D01*
X12762200Y-2743200D01*
X12512200Y-2743200D01*
X12216950Y-2743200D01*
X12160200Y-2799950D01*
X12160200Y-3111353D01*
X12194759Y-3194785D01*
X12258615Y-3258641D01*
X12320319Y-3284200D01*
X12192047Y-3284200D01*
X12108615Y-3318759D01*
X12044759Y-3382615D01*
X12010200Y-3466047D01*
X11865373Y-3466047D01*
X11850844Y-3388835D01*
X11778527Y-3276451D01*
X11686259Y-3213407D01*
X11697344Y-3197183D01*
X11723869Y-3066200D01*
X11723869Y-2166200D01*
X11715373Y-2121047D01*
X12160200Y-2121047D01*
X12160200Y-2432450D01*
X12216950Y-2489200D01*
X12512200Y-2489200D01*
X12512200Y-1995950D01*
X12762200Y-1995950D01*
X12762200Y-2489200D01*
X13057450Y-2489200D01*
X13114200Y-2432450D01*
X13114200Y-2121047D01*
X13079641Y-2037615D01*
X13015785Y-1973759D01*
X12932353Y-1939200D01*
X12818950Y-1939200D01*
X12762200Y-1995950D01*
X12512200Y-1995950D01*
X12455450Y-1939200D01*
X12342047Y-1939200D01*
X12258615Y-1973759D01*
X12194759Y-2037615D01*
X12160200Y-2121047D01*
X11715373Y-2121047D01*
X11700844Y-2043835D01*
X11628527Y-1931451D01*
X11518183Y-1856056D01*
X11387200Y-1829531D01*
X10887200Y-1829531D01*
X10764835Y-1852556D01*
X10652451Y-1924873D01*
X10577056Y-2035217D01*
X10550531Y-2166200D01*
X10550531Y-3066200D01*
X10573556Y-3188565D01*
X10589735Y-3213708D01*
X10502451Y-3269873D01*
X10427056Y-3380217D01*
X10400531Y-3511200D01*
X10400531Y-4170319D01*
X10377850Y-4193000D01*
X10373937Y-4193000D01*
X10387869Y-4124200D01*
X10387869Y-3624200D01*
X10364844Y-3501835D01*
X10292527Y-3389451D01*
X10182183Y-3314056D01*
X10051200Y-3287531D01*
X9151200Y-3287531D01*
X9042400Y-3308004D01*
X9042400Y-2824836D01*
X9106047Y-2851200D01*
X9417450Y-2851200D01*
X9474200Y-2794450D01*
X9474200Y-2499200D01*
X9728200Y-2499200D01*
X9728200Y-2794450D01*
X9784950Y-2851200D01*
X10096353Y-2851200D01*
X10179785Y-2816641D01*
X10243641Y-2752785D01*
X10278200Y-2669353D01*
X10278200Y-2555950D01*
X10221450Y-2499200D01*
X9728200Y-2499200D01*
X9474200Y-2499200D01*
X9454200Y-2499200D01*
X9454200Y-2249200D01*
X9474200Y-2249200D01*
X9474200Y-1953950D01*
X9728200Y-1953950D01*
X9728200Y-2249200D01*
X10221450Y-2249200D01*
X10278200Y-2192450D01*
X10278200Y-2079047D01*
X10243641Y-1995615D01*
X10179785Y-1931759D01*
X10096353Y-1897200D01*
X9784950Y-1897200D01*
X9728200Y-1953950D01*
X9474200Y-1953950D01*
X9417450Y-1897200D01*
X9106047Y-1897200D01*
X9042400Y-1923564D01*
X9042400Y-1819200D01*
X9163450Y-1819200D01*
X9220200Y-1762450D01*
X9220200Y-919200D01*
X9474200Y-919200D01*
X9474200Y-1762450D01*
X9530950Y-1819200D01*
X9872353Y-1819200D01*
X9955785Y-1784641D01*
X10019641Y-1720785D01*
X10054200Y-1637353D01*
X10054200Y-975950D01*
X9997450Y-919200D01*
X9474200Y-919200D01*
X9220200Y-919200D01*
X9200200Y-919200D01*
X9200200Y-787400D01*
X15316200Y-787400D01*
X15316200Y-5233531D01*
G36*
X3557131Y-1592200D02*
X3580156Y-1714565D01*
X3652473Y-1826949D01*
X3762817Y-1902344D01*
X3893800Y-1928869D01*
X4843800Y-1928869D01*
X4966165Y-1905844D01*
X5078549Y-1833527D01*
X5093921Y-1811029D01*
X5113647Y-1819200D01*
X5455050Y-1819200D01*
X5511800Y-1762450D01*
X5511800Y-919200D01*
X5765800Y-919200D01*
X5765800Y-1762450D01*
X5822550Y-1819200D01*
X6163953Y-1819200D01*
X6247385Y-1784641D01*
X6311241Y-1720785D01*
X6345800Y-1637353D01*
X6345800Y-975950D01*
X6289050Y-919200D01*
X5765800Y-919200D01*
X5511800Y-919200D01*
X5491800Y-919200D01*
X5491800Y-787400D01*
X7137400Y-787400D01*
X7137400Y-2308602D01*
X7125331Y-2368200D01*
X7125331Y-3118200D01*
X7137400Y-3182340D01*
X7137400Y-3986391D01*
X7118621Y-3967579D01*
X6867533Y-3863318D01*
X6595660Y-3863081D01*
X6344391Y-3966904D01*
X6151979Y-4158979D01*
X6047718Y-4410067D01*
X6047481Y-4681940D01*
X6151304Y-4933209D01*
X6249476Y-5031553D01*
X6219451Y-5050873D01*
X6182194Y-5105400D01*
X5792384Y-5105400D01*
X5645421Y-4958179D01*
X5394333Y-4853918D01*
X5122460Y-4853681D01*
X4947135Y-4926124D01*
X4968869Y-4818800D01*
X4968869Y-4542148D01*
X5095867Y-4594882D01*
X5367740Y-4595119D01*
X5619009Y-4491296D01*
X5811421Y-4299221D01*
X5915682Y-4048133D01*
X5915919Y-3776260D01*
X5812096Y-3524991D01*
X5728974Y-3441723D01*
X5811421Y-3359421D01*
X5832186Y-3309412D01*
X5833415Y-3310641D01*
X5916847Y-3345200D01*
X6178250Y-3345200D01*
X6235000Y-3288450D01*
X6235000Y-2870200D01*
X6489000Y-2870200D01*
X6489000Y-3288450D01*
X6545750Y-3345200D01*
X6807153Y-3345200D01*
X6890585Y-3310641D01*
X6954441Y-3246785D01*
X6989000Y-3163353D01*
X6989000Y-2926950D01*
X6932250Y-2870200D01*
X6489000Y-2870200D01*
X6235000Y-2870200D01*
X6215000Y-2870200D01*
X6215000Y-2616200D01*
X6235000Y-2616200D01*
X6235000Y-2197950D01*
X6489000Y-2197950D01*
X6489000Y-2616200D01*
X6932250Y-2616200D01*
X6989000Y-2559450D01*
X6989000Y-2323047D01*
X6954441Y-2239615D01*
X6890585Y-2175759D01*
X6807153Y-2141200D01*
X6545750Y-2141200D01*
X6489000Y-2197950D01*
X6235000Y-2197950D01*
X6178250Y-2141200D01*
X5916847Y-2141200D01*
X5833415Y-2175759D01*
X5769559Y-2239615D01*
X5735000Y-2323047D01*
X5735000Y-2507960D01*
X5620021Y-2392779D01*
X5368933Y-2288518D01*
X5097060Y-2288281D01*
X4921103Y-2360986D01*
X4873527Y-2287051D01*
X4763183Y-2211656D01*
X4632200Y-2185131D01*
X4132200Y-2185131D01*
X4009835Y-2208156D01*
X3897451Y-2280473D01*
X3893675Y-2286000D01*
X3371989Y-2286000D01*
X3263183Y-2211656D01*
X3132200Y-2185131D01*
X2632200Y-2185131D01*
X2509835Y-2208156D01*
X2397451Y-2280473D01*
X2322056Y-2390817D01*
X2295531Y-2521800D01*
X2295531Y-3421800D01*
X2302000Y-3456179D01*
X2302000Y-3886855D01*
X2295531Y-3918800D01*
X2295531Y-4818800D01*
X2302000Y-4853179D01*
X2302000Y-4957000D01*
X1909074Y-4957000D01*
X1905844Y-4939835D01*
X1833527Y-4827451D01*
X1811029Y-4812079D01*
X1819200Y-4792353D01*
X1819200Y-4450950D01*
X1762450Y-4394200D01*
X919200Y-4394200D01*
X919200Y-4414200D01*
X787400Y-4414200D01*
X787400Y-3616950D01*
X919200Y-3616950D01*
X919200Y-4140200D01*
X1762450Y-4140200D01*
X1819200Y-4083450D01*
X1819200Y-3742047D01*
X1784641Y-3658615D01*
X1720785Y-3594759D01*
X1637353Y-3560200D01*
X975950Y-3560200D01*
X919200Y-3616950D01*
X787400Y-3616950D01*
X787400Y-787400D01*
X3557131Y-787400D01*
X3557131Y-1592200D01*
X3557131Y-1592200D01*
G37*
X3557131Y-1592200D02*
X3580156Y-1714565D01*
X3652473Y-1826949D01*
X3762817Y-1902344D01*
X3893800Y-1928869D01*
X4843800Y-1928869D01*
X4966165Y-1905844D01*
X5078549Y-1833527D01*
X5093921Y-1811029D01*
X5113647Y-1819200D01*
X5455050Y-1819200D01*
X5511800Y-1762450D01*
X5511800Y-919200D01*
X5765800Y-919200D01*
X5765800Y-1762450D01*
X5822550Y-1819200D01*
X6163953Y-1819200D01*
X6247385Y-1784641D01*
X6311241Y-1720785D01*
X6345800Y-1637353D01*
X6345800Y-975950D01*
X6289050Y-919200D01*
X5765800Y-919200D01*
X5511800Y-919200D01*
X5491800Y-919200D01*
X5491800Y-787400D01*
X7137400Y-787400D01*
X7137400Y-2308602D01*
X7125331Y-2368200D01*
X7125331Y-3118200D01*
X7137400Y-3182340D01*
X7137400Y-3986391D01*
X7118621Y-3967579D01*
X6867533Y-3863318D01*
X6595660Y-3863081D01*
X6344391Y-3966904D01*
X6151979Y-4158979D01*
X6047718Y-4410067D01*
X6047481Y-4681940D01*
X6151304Y-4933209D01*
X6249476Y-5031553D01*
X6219451Y-5050873D01*
X6182194Y-5105400D01*
X5792384Y-5105400D01*
X5645421Y-4958179D01*
X5394333Y-4853918D01*
X5122460Y-4853681D01*
X4947135Y-4926124D01*
X4968869Y-4818800D01*
X4968869Y-4542148D01*
X5095867Y-4594882D01*
X5367740Y-4595119D01*
X5619009Y-4491296D01*
X5811421Y-4299221D01*
X5915682Y-4048133D01*
X5915919Y-3776260D01*
X5812096Y-3524991D01*
X5728974Y-3441723D01*
X5811421Y-3359421D01*
X5832186Y-3309412D01*
X5833415Y-3310641D01*
X5916847Y-3345200D01*
X6178250Y-3345200D01*
X6235000Y-3288450D01*
X6235000Y-2870200D01*
X6489000Y-2870200D01*
X6489000Y-3288450D01*
X6545750Y-3345200D01*
X6807153Y-3345200D01*
X6890585Y-3310641D01*
X6954441Y-3246785D01*
X6989000Y-3163353D01*
X6989000Y-2926950D01*
X6932250Y-2870200D01*
X6489000Y-2870200D01*
X6235000Y-2870200D01*
X6215000Y-2870200D01*
X6215000Y-2616200D01*
X6235000Y-2616200D01*
X6235000Y-2197950D01*
X6489000Y-2197950D01*
X6489000Y-2616200D01*
X6932250Y-2616200D01*
X6989000Y-2559450D01*
X6989000Y-2323047D01*
X6954441Y-2239615D01*
X6890585Y-2175759D01*
X6807153Y-2141200D01*
X6545750Y-2141200D01*
X6489000Y-2197950D01*
X6235000Y-2197950D01*
X6178250Y-2141200D01*
X5916847Y-2141200D01*
X5833415Y-2175759D01*
X5769559Y-2239615D01*
X5735000Y-2323047D01*
X5735000Y-2507960D01*
X5620021Y-2392779D01*
X5368933Y-2288518D01*
X5097060Y-2288281D01*
X4921103Y-2360986D01*
X4873527Y-2287051D01*
X4763183Y-2211656D01*
X4632200Y-2185131D01*
X4132200Y-2185131D01*
X4009835Y-2208156D01*
X3897451Y-2280473D01*
X3893675Y-2286000D01*
X3371989Y-2286000D01*
X3263183Y-2211656D01*
X3132200Y-2185131D01*
X2632200Y-2185131D01*
X2509835Y-2208156D01*
X2397451Y-2280473D01*
X2322056Y-2390817D01*
X2295531Y-2521800D01*
X2295531Y-3421800D01*
X2302000Y-3456179D01*
X2302000Y-3886855D01*
X2295531Y-3918800D01*
X2295531Y-4818800D01*
X2302000Y-4853179D01*
X2302000Y-4957000D01*
X1909074Y-4957000D01*
X1905844Y-4939835D01*
X1833527Y-4827451D01*
X1811029Y-4812079D01*
X1819200Y-4792353D01*
X1819200Y-4450950D01*
X1762450Y-4394200D01*
X919200Y-4394200D01*
X919200Y-4414200D01*
X787400Y-4414200D01*
X787400Y-3616950D01*
X919200Y-3616950D01*
X919200Y-4140200D01*
X1762450Y-4140200D01*
X1819200Y-4083450D01*
X1819200Y-3742047D01*
X1784641Y-3658615D01*
X1720785Y-3594759D01*
X1637353Y-3560200D01*
X975950Y-3560200D01*
X919200Y-3616950D01*
X787400Y-3616950D01*
X787400Y-787400D01*
X3557131Y-787400D01*
X3557131Y-1592200D01*
M02*
