G04 #@! TF.FileFunction,Legend,Top*
%FSLAX46Y46*%
G04 Gerber Fmt 4.6, Leading zero omitted, Abs format (unit mm)*
G04 Created by KiCad (PCBNEW 4.0.2-stable) date 02-04-2017 12:22:52*
%MOMM*%
G01*
G04 APERTURE LIST*
%ADD10C,0.100000*%
%ADD11C,0.125000*%
%ADD12C,0.120000*%
%ADD13C,0.150000*%
G04 APERTURE END LIST*
D10*
D11*
X6990687Y-12057129D02*
X6824020Y-11771414D01*
X6704973Y-12057129D02*
X6704973Y-11457129D01*
X6895449Y-11457129D01*
X6943068Y-11485700D01*
X6966877Y-11514271D01*
X6990687Y-11571414D01*
X6990687Y-11657129D01*
X6966877Y-11714271D01*
X6943068Y-11742843D01*
X6895449Y-11771414D01*
X6704973Y-11771414D01*
X7395449Y-12028557D02*
X7347830Y-12057129D01*
X7252592Y-12057129D01*
X7204973Y-12028557D01*
X7181163Y-11971414D01*
X7181163Y-11742843D01*
X7204973Y-11685700D01*
X7252592Y-11657129D01*
X7347830Y-11657129D01*
X7395449Y-11685700D01*
X7419258Y-11742843D01*
X7419258Y-11799986D01*
X7181163Y-11857129D01*
X7585925Y-11657129D02*
X7704972Y-12057129D01*
X7824020Y-11657129D01*
X8657352Y-12057129D02*
X8371638Y-12057129D01*
X8514495Y-12057129D02*
X8514495Y-11457129D01*
X8466876Y-11542843D01*
X8419257Y-11599986D01*
X8371638Y-11628557D01*
X8871638Y-11999986D02*
X8895447Y-12028557D01*
X8871638Y-12057129D01*
X8847828Y-12028557D01*
X8871638Y-11999986D01*
X8871638Y-12057129D01*
X9371637Y-12057129D02*
X9085923Y-12057129D01*
X9228780Y-12057129D02*
X9228780Y-11457129D01*
X9181161Y-11542843D01*
X9133542Y-11599986D01*
X9085923Y-11628557D01*
X6835925Y-12479271D02*
X6859735Y-12450700D01*
X6907354Y-12422129D01*
X7026401Y-12422129D01*
X7074020Y-12450700D01*
X7097830Y-12479271D01*
X7121639Y-12536414D01*
X7121639Y-12593557D01*
X7097830Y-12679271D01*
X6812116Y-13022129D01*
X7121639Y-13022129D01*
X7335925Y-12964986D02*
X7359734Y-12993557D01*
X7335925Y-13022129D01*
X7312115Y-12993557D01*
X7335925Y-12964986D01*
X7335925Y-13022129D01*
X7574020Y-13022129D02*
X7574020Y-12422129D01*
X7740686Y-12422129D02*
X7907353Y-13022129D01*
X8074019Y-12422129D01*
X8240686Y-12964986D02*
X8264495Y-12993557D01*
X8240686Y-13022129D01*
X8216876Y-12993557D01*
X8240686Y-12964986D01*
X8240686Y-13022129D01*
X8740685Y-13022129D02*
X8454971Y-13022129D01*
X8597828Y-13022129D02*
X8597828Y-12422129D01*
X8550209Y-12507843D01*
X8502590Y-12564986D01*
X8454971Y-12593557D01*
X8907352Y-12422129D02*
X9240685Y-12422129D01*
X9026399Y-13022129D01*
D12*
X4175200Y-12008600D02*
X4175200Y-11308600D01*
X5375200Y-11308600D02*
X5375200Y-12008600D01*
X4109200Y-7280200D02*
X3409200Y-7280200D01*
X3409200Y-6080200D02*
X4109200Y-6080200D01*
X11439600Y-10027400D02*
X11439600Y-9327400D01*
X12639600Y-9327400D02*
X12639600Y-10027400D01*
X11537200Y-3286200D02*
X12237200Y-3286200D01*
X12237200Y-4486200D02*
X11537200Y-4486200D01*
X4109200Y-8804200D02*
X3409200Y-8804200D01*
X3409200Y-7604200D02*
X4109200Y-7604200D01*
X7462000Y-3343200D02*
X6762000Y-3343200D01*
X6762000Y-2143200D02*
X7462000Y-2143200D01*
X12709600Y-8706600D02*
X12709600Y-8006600D01*
X13909600Y-8006600D02*
X13909600Y-8706600D01*
X10281200Y-2624200D02*
X10281200Y-3624200D01*
X8921200Y-3624200D02*
X8921200Y-2624200D01*
X12694200Y-6180200D02*
X12694200Y-7180200D01*
X11334200Y-7180200D02*
X11334200Y-6180200D01*
X12387200Y-3296200D02*
X11387200Y-3296200D01*
X11387200Y-1936200D02*
X12387200Y-1936200D01*
D13*
X5537200Y-8966200D02*
X6045200Y-9728200D01*
X11125200Y-5156200D02*
X5537200Y-5156200D01*
X5537200Y-5156200D02*
X5537200Y-9728200D01*
X5537200Y-9728200D02*
X11125200Y-9728200D01*
X11125200Y-9728200D02*
X11125200Y-5156200D01*
D12*
X14444600Y-13659400D02*
X13444600Y-13659400D01*
X13444600Y-12299400D02*
X14444600Y-12299400D01*
X14444600Y-12287800D02*
X13444600Y-12287800D01*
X13444600Y-10927800D02*
X14444600Y-10927800D01*
X4132200Y-3651800D02*
X3132200Y-3651800D01*
X3132200Y-2291800D02*
X4132200Y-2291800D01*
X4132200Y-5048800D02*
X3132200Y-5048800D01*
X3132200Y-3688800D02*
X4132200Y-3688800D01*
M02*
