%FSLAX45Y45*%
G04 Gerber Fmt 4.5, Leading zero omitted, Abs format (unit mm)*
G04 Created by KiCad (PCBNEW 4.0.2-stable) date 02-04-2017 12:22:54*
%MOMM*%
G01*
G04 APERTURE LIST*
%ADD10C,0.127000*%
%ADD11C,0.010000*%
%ADD12C,0.200000*%
%ADD13C,0.300000*%
G04 APERTURE END LIST*
D10*
D11*
X1605280Y-1539240D02*
X1597660Y-1539240D01*
X1605280Y0D02*
X1605280Y-1539240D01*
X0Y-1539240D02*
X1597660Y-1539240D01*
X0Y-1457960D02*
X0Y-1539240D01*
X1549400Y0D02*
X1605280Y0D01*
X0Y0D02*
X0Y-1457960D01*
X1549400Y0D02*
X0Y0D01*
D12*
X508240Y-282180D02*
X538240Y-312180D01*
X538240Y-282180D02*
X508240Y-312180D01*
X508240Y-376160D02*
X538240Y-406160D01*
X538240Y-376160D02*
X508240Y-406160D01*
X510780Y-538720D02*
X540780Y-568720D01*
X540780Y-538720D02*
X510780Y-568720D01*
X571740Y-1008620D02*
X601740Y-1038620D01*
X601740Y-1008620D02*
X571740Y-1038620D01*
X658100Y-439660D02*
X688100Y-469660D01*
X688100Y-439660D02*
X658100Y-469660D01*
X665720Y-1008620D02*
X695720Y-1038620D01*
X695720Y-1008620D02*
X665720Y-1038620D01*
X899400Y-1028940D02*
X929400Y-1058940D01*
X929400Y-1028940D02*
X899400Y-1058940D01*
X980680Y-1072120D02*
X1010680Y-1102120D01*
X1010680Y-1072120D02*
X980680Y-1102120D01*
X1059420Y-1023860D02*
X1089420Y-1053860D01*
X1089420Y-1023860D02*
X1059420Y-1053860D01*
X134220Y-426720D02*
G75*
G03X134220Y-426720I-25000J0D01*
G01*
X134220Y-553720D02*
G75*
G03X134220Y-553720I-25000J0D01*
G01*
X134220Y-1099820D02*
G75*
G03X134220Y-1099820I-25000J0D01*
G01*
X134220Y-1226820D02*
G75*
G03X134220Y-1226820I-25000J0D01*
G01*
X215500Y-167640D02*
G75*
G03X215500Y-167640I-25000J0D01*
G01*
X215500Y-248920D02*
G75*
G03X215500Y-248920I-25000J0D01*
G01*
X218040Y-330200D02*
G75*
G03X218040Y-330200I-25000J0D01*
G01*
X318370Y-947420D02*
G75*
G03X318370Y-947420I-25000J0D01*
G01*
X337420Y-1430020D02*
G75*
G03X337420Y-1430020I-25000J0D01*
G01*
X461880Y-109220D02*
G75*
G03X461880Y-109220I-25000J0D01*
G01*
X464420Y-1430020D02*
G75*
G03X464420Y-1430020I-25000J0D01*
G01*
X588880Y-109220D02*
G75*
G03X588880Y-109220I-25000J0D01*
G01*
X591420Y-1430020D02*
G75*
G03X591420Y-1430020I-25000J0D01*
G01*
X718420Y-1430020D02*
G75*
G03X718420Y-1430020I-25000J0D01*
G01*
X756520Y-693420D02*
G75*
G03X756520Y-693420I-25000J0D01*
G01*
X756520Y-795020D02*
G75*
G03X756520Y-795020I-25000J0D01*
G01*
X832720Y-109220D02*
G75*
G03X832720Y-109220I-25000J0D01*
G01*
X845420Y-1430020D02*
G75*
G03X845420Y-1430020I-25000J0D01*
G01*
X858120Y-693420D02*
G75*
G03X858120Y-693420I-25000J0D01*
G01*
X858120Y-795020D02*
G75*
G03X858120Y-795020I-25000J0D01*
G01*
X959720Y-109220D02*
G75*
G03X959720Y-109220I-25000J0D01*
G01*
X959720Y-693420D02*
G75*
G03X959720Y-693420I-25000J0D01*
G01*
X959720Y-795020D02*
G75*
G03X959720Y-795020I-25000J0D01*
G01*
X972420Y-1430020D02*
G75*
G03X972420Y-1430020I-25000J0D01*
G01*
X1099420Y-1430020D02*
G75*
G03X1099420Y-1430020I-25000J0D01*
G01*
X1226420Y-1430020D02*
G75*
G03X1226420Y-1430020I-25000J0D01*
G01*
X1340720Y-591820D02*
G75*
G03X1340720Y-591820I-25000J0D01*
G01*
X1467720Y-185420D02*
G75*
G03X1467720Y-185420I-25000J0D01*
G01*
X1467720Y-287020D02*
G75*
G03X1467720Y-287020I-25000J0D01*
G01*
X1467720Y-388620D02*
G75*
G03X1467720Y-388620I-25000J0D01*
G01*
X1518520Y-604520D02*
G75*
G03X1518520Y-604520I-25000J0D01*
G01*
X1518520Y-731520D02*
G75*
G03X1518520Y-731520I-25000J0D01*
G01*
X1518520Y-883920D02*
G75*
G03X1518520Y-883920I-25000J0D01*
G01*
X1518520Y-1010920D02*
G75*
G03X1518520Y-1010920I-25000J0D01*
G01*
D13*
X270929Y-2005454D02*
X270929Y-1705454D01*
X342357Y-1705454D01*
X385214Y-1719740D01*
X413786Y-1748311D01*
X428071Y-1776883D01*
X442357Y-1834026D01*
X442357Y-1876883D01*
X428071Y-1934026D01*
X413786Y-1962597D01*
X385214Y-1991169D01*
X342357Y-2005454D01*
X270929Y-2005454D01*
X570929Y-2005454D02*
X570929Y-1805454D01*
X570929Y-1862597D02*
X585214Y-1834026D01*
X599500Y-1819740D01*
X628071Y-1805454D01*
X656643Y-1805454D01*
X756643Y-2005454D02*
X756643Y-1805454D01*
X756643Y-1705454D02*
X742357Y-1719740D01*
X756643Y-1734026D01*
X770928Y-1719740D01*
X756643Y-1705454D01*
X756643Y-1734026D01*
X942357Y-2005454D02*
X913786Y-1991169D01*
X899500Y-1962597D01*
X899500Y-1705454D01*
X1099500Y-2005454D02*
X1070929Y-1991169D01*
X1056643Y-1962597D01*
X1056643Y-1705454D01*
X1442357Y-2005454D02*
X1442357Y-1705454D01*
X1542357Y-1919740D01*
X1642357Y-1705454D01*
X1642357Y-2005454D01*
X1913786Y-2005454D02*
X1913786Y-1848311D01*
X1899500Y-1819740D01*
X1870928Y-1805454D01*
X1813786Y-1805454D01*
X1785214Y-1819740D01*
X1913786Y-1991169D02*
X1885214Y-2005454D01*
X1813786Y-2005454D01*
X1785214Y-1991169D01*
X1770928Y-1962597D01*
X1770928Y-1934026D01*
X1785214Y-1905454D01*
X1813786Y-1891169D01*
X1885214Y-1891169D01*
X1913786Y-1876883D01*
X2056643Y-1805454D02*
X2056643Y-2105454D01*
X2056643Y-1819740D02*
X2085214Y-1805454D01*
X2142357Y-1805454D01*
X2170929Y-1819740D01*
X2185214Y-1834026D01*
X2199500Y-1862597D01*
X2199500Y-1948311D01*
X2185214Y-1976883D01*
X2170929Y-1991169D01*
X2142357Y-2005454D01*
X2085214Y-2005454D01*
X2056643Y-1991169D01*
X2328071Y-1976883D02*
X2342357Y-1991169D01*
X2328071Y-2005454D01*
X2313786Y-1991169D01*
X2328071Y-1976883D01*
X2328071Y-2005454D01*
X2328071Y-1819740D02*
X2342357Y-1834026D01*
X2328071Y-1848311D01*
X2313786Y-1834026D01*
X2328071Y-1819740D01*
X2328071Y-1848311D01*
X-30500Y-2484740D02*
X-500Y-2514740D01*
X-500Y-2484740D02*
X-30500Y-2514740D01*
X328071Y-2335454D02*
X356643Y-2335454D01*
X385214Y-2349740D01*
X399500Y-2364026D01*
X413786Y-2392597D01*
X428071Y-2449740D01*
X428071Y-2521169D01*
X413786Y-2578312D01*
X399500Y-2606883D01*
X385214Y-2621169D01*
X356643Y-2635454D01*
X328071Y-2635454D01*
X299500Y-2621169D01*
X285214Y-2606883D01*
X270929Y-2578312D01*
X256643Y-2521169D01*
X256643Y-2449740D01*
X270929Y-2392597D01*
X285214Y-2364026D01*
X299500Y-2349740D01*
X328071Y-2335454D01*
X556643Y-2606883D02*
X570929Y-2621169D01*
X556643Y-2635454D01*
X542357Y-2621169D01*
X556643Y-2606883D01*
X556643Y-2635454D01*
X670928Y-2335454D02*
X856643Y-2335454D01*
X756643Y-2449740D01*
X799500Y-2449740D01*
X828071Y-2464026D01*
X842357Y-2478312D01*
X856643Y-2506883D01*
X856643Y-2578312D01*
X842357Y-2606883D01*
X828071Y-2621169D01*
X799500Y-2635454D01*
X713786Y-2635454D01*
X685214Y-2621169D01*
X670928Y-2606883D01*
X1042357Y-2335454D02*
X1070929Y-2335454D01*
X1099500Y-2349740D01*
X1113786Y-2364026D01*
X1128071Y-2392597D01*
X1142357Y-2449740D01*
X1142357Y-2521169D01*
X1128071Y-2578312D01*
X1113786Y-2606883D01*
X1099500Y-2621169D01*
X1070929Y-2635454D01*
X1042357Y-2635454D01*
X1013786Y-2621169D01*
X999500Y-2606883D01*
X985214Y-2578312D01*
X970928Y-2521169D01*
X970928Y-2449740D01*
X985214Y-2392597D01*
X999500Y-2364026D01*
X1013786Y-2349740D01*
X1042357Y-2335454D01*
X1270929Y-2635454D02*
X1270929Y-2435454D01*
X1270929Y-2464026D02*
X1285214Y-2449740D01*
X1313786Y-2435454D01*
X1356643Y-2435454D01*
X1385214Y-2449740D01*
X1399500Y-2478312D01*
X1399500Y-2635454D01*
X1399500Y-2478312D02*
X1413786Y-2449740D01*
X1442357Y-2435454D01*
X1485214Y-2435454D01*
X1513786Y-2449740D01*
X1528071Y-2478312D01*
X1528071Y-2635454D01*
X1670928Y-2635454D02*
X1670928Y-2435454D01*
X1670928Y-2464026D02*
X1685214Y-2449740D01*
X1713786Y-2435454D01*
X1756643Y-2435454D01*
X1785214Y-2449740D01*
X1799500Y-2478312D01*
X1799500Y-2635454D01*
X1799500Y-2478312D02*
X1813786Y-2449740D01*
X1842357Y-2435454D01*
X1885214Y-2435454D01*
X1913786Y-2449740D01*
X1928071Y-2478312D01*
X1928071Y-2635454D01*
X2513786Y-2321169D02*
X2256643Y-2706883D01*
X2899500Y-2335454D02*
X2928071Y-2335454D01*
X2956643Y-2349740D01*
X2970928Y-2364026D01*
X2985214Y-2392597D01*
X2999500Y-2449740D01*
X2999500Y-2521169D01*
X2985214Y-2578312D01*
X2970928Y-2606883D01*
X2956643Y-2621169D01*
X2928071Y-2635454D01*
X2899500Y-2635454D01*
X2870928Y-2621169D01*
X2856643Y-2606883D01*
X2842357Y-2578312D01*
X2828071Y-2521169D01*
X2828071Y-2449740D01*
X2842357Y-2392597D01*
X2856643Y-2364026D01*
X2870928Y-2349740D01*
X2899500Y-2335454D01*
X3128071Y-2606883D02*
X3142357Y-2621169D01*
X3128071Y-2635454D01*
X3113786Y-2621169D01*
X3128071Y-2606883D01*
X3128071Y-2635454D01*
X3328071Y-2335454D02*
X3356643Y-2335454D01*
X3385214Y-2349740D01*
X3399500Y-2364026D01*
X3413785Y-2392597D01*
X3428071Y-2449740D01*
X3428071Y-2521169D01*
X3413785Y-2578312D01*
X3399500Y-2606883D01*
X3385214Y-2621169D01*
X3356643Y-2635454D01*
X3328071Y-2635454D01*
X3299500Y-2621169D01*
X3285214Y-2606883D01*
X3270928Y-2578312D01*
X3256643Y-2521169D01*
X3256643Y-2449740D01*
X3270928Y-2392597D01*
X3285214Y-2364026D01*
X3299500Y-2349740D01*
X3328071Y-2335454D01*
X3713785Y-2635454D02*
X3542357Y-2635454D01*
X3628071Y-2635454D02*
X3628071Y-2335454D01*
X3599500Y-2378312D01*
X3570928Y-2406883D01*
X3542357Y-2421169D01*
X3828071Y-2364026D02*
X3842357Y-2349740D01*
X3870928Y-2335454D01*
X3942357Y-2335454D01*
X3970928Y-2349740D01*
X3985214Y-2364026D01*
X3999500Y-2392597D01*
X3999500Y-2421169D01*
X3985214Y-2464026D01*
X3813785Y-2635454D01*
X3999500Y-2635454D01*
X4113786Y-2335454D02*
X4113786Y-2392597D01*
X4228071Y-2335454D02*
X4228071Y-2392597D01*
X4670928Y-2749740D02*
X4656643Y-2735454D01*
X4628071Y-2692597D01*
X4613786Y-2664026D01*
X4599500Y-2621169D01*
X4585214Y-2549740D01*
X4585214Y-2492597D01*
X4599500Y-2421169D01*
X4613786Y-2378312D01*
X4628071Y-2349740D01*
X4656643Y-2306883D01*
X4670928Y-2292597D01*
X4799500Y-2635454D02*
X4856643Y-2635454D01*
X4885214Y-2621169D01*
X4899500Y-2606883D01*
X4928071Y-2564026D01*
X4942357Y-2506883D01*
X4942357Y-2392597D01*
X4928071Y-2364026D01*
X4913786Y-2349740D01*
X4885214Y-2335454D01*
X4828071Y-2335454D01*
X4799500Y-2349740D01*
X4785214Y-2364026D01*
X4770928Y-2392597D01*
X4770928Y-2464026D01*
X4785214Y-2492597D01*
X4799500Y-2506883D01*
X4828071Y-2521169D01*
X4885214Y-2521169D01*
X4913786Y-2506883D01*
X4928071Y-2492597D01*
X4942357Y-2464026D01*
X5299500Y-2635454D02*
X5299500Y-2335454D01*
X5428071Y-2635454D02*
X5428071Y-2478312D01*
X5413786Y-2449740D01*
X5385214Y-2435454D01*
X5342357Y-2435454D01*
X5313786Y-2449740D01*
X5299500Y-2464026D01*
X5613785Y-2635454D02*
X5585214Y-2621169D01*
X5570928Y-2606883D01*
X5556643Y-2578312D01*
X5556643Y-2492597D01*
X5570928Y-2464026D01*
X5585214Y-2449740D01*
X5613785Y-2435454D01*
X5656643Y-2435454D01*
X5685214Y-2449740D01*
X5699500Y-2464026D01*
X5713785Y-2492597D01*
X5713785Y-2578312D01*
X5699500Y-2606883D01*
X5685214Y-2621169D01*
X5656643Y-2635454D01*
X5613785Y-2635454D01*
X5885214Y-2635454D02*
X5856643Y-2621169D01*
X5842357Y-2592597D01*
X5842357Y-2335454D01*
X6113786Y-2621169D02*
X6085214Y-2635454D01*
X6028071Y-2635454D01*
X5999500Y-2621169D01*
X5985214Y-2592597D01*
X5985214Y-2478312D01*
X5999500Y-2449740D01*
X6028071Y-2435454D01*
X6085214Y-2435454D01*
X6113786Y-2449740D01*
X6128071Y-2478312D01*
X6128071Y-2506883D01*
X5985214Y-2535454D01*
X6242357Y-2621169D02*
X6270928Y-2635454D01*
X6328071Y-2635454D01*
X6356643Y-2621169D01*
X6370928Y-2592597D01*
X6370928Y-2578312D01*
X6356643Y-2549740D01*
X6328071Y-2535454D01*
X6285214Y-2535454D01*
X6256643Y-2521169D01*
X6242357Y-2492597D01*
X6242357Y-2478312D01*
X6256643Y-2449740D01*
X6285214Y-2435454D01*
X6328071Y-2435454D01*
X6356643Y-2449740D01*
X6470928Y-2749740D02*
X6485214Y-2735454D01*
X6513786Y-2692597D01*
X6528071Y-2664026D01*
X6542357Y-2621169D01*
X6556643Y-2549740D01*
X6556643Y-2492597D01*
X6542357Y-2421169D01*
X6528071Y-2378312D01*
X6513786Y-2349740D01*
X6485214Y-2306883D01*
X6470928Y-2292597D01*
X-500Y-2895740D02*
G75*
G03X-500Y-2895740I-25000J0D01*
G01*
X328071Y-2731454D02*
X356643Y-2731454D01*
X385214Y-2745740D01*
X399500Y-2760026D01*
X413786Y-2788597D01*
X428071Y-2845740D01*
X428071Y-2917169D01*
X413786Y-2974311D01*
X399500Y-3002883D01*
X385214Y-3017169D01*
X356643Y-3031454D01*
X328071Y-3031454D01*
X299500Y-3017169D01*
X285214Y-3002883D01*
X270929Y-2974311D01*
X256643Y-2917169D01*
X256643Y-2845740D01*
X270929Y-2788597D01*
X285214Y-2760026D01*
X299500Y-2745740D01*
X328071Y-2731454D01*
X556643Y-3002883D02*
X570929Y-3017169D01*
X556643Y-3031454D01*
X542357Y-3017169D01*
X556643Y-3002883D01*
X556643Y-3031454D01*
X842357Y-2731454D02*
X699500Y-2731454D01*
X685214Y-2874311D01*
X699500Y-2860026D01*
X728071Y-2845740D01*
X799500Y-2845740D01*
X828071Y-2860026D01*
X842357Y-2874311D01*
X856643Y-2902883D01*
X856643Y-2974311D01*
X842357Y-3002883D01*
X828071Y-3017169D01*
X799500Y-3031454D01*
X728071Y-3031454D01*
X699500Y-3017169D01*
X685214Y-3002883D01*
X1042357Y-2731454D02*
X1070929Y-2731454D01*
X1099500Y-2745740D01*
X1113786Y-2760026D01*
X1128071Y-2788597D01*
X1142357Y-2845740D01*
X1142357Y-2917169D01*
X1128071Y-2974311D01*
X1113786Y-3002883D01*
X1099500Y-3017169D01*
X1070929Y-3031454D01*
X1042357Y-3031454D01*
X1013786Y-3017169D01*
X999500Y-3002883D01*
X985214Y-2974311D01*
X970928Y-2917169D01*
X970928Y-2845740D01*
X985214Y-2788597D01*
X999500Y-2760026D01*
X1013786Y-2745740D01*
X1042357Y-2731454D01*
X1270929Y-3031454D02*
X1270929Y-2831454D01*
X1270929Y-2860026D02*
X1285214Y-2845740D01*
X1313786Y-2831454D01*
X1356643Y-2831454D01*
X1385214Y-2845740D01*
X1399500Y-2874311D01*
X1399500Y-3031454D01*
X1399500Y-2874311D02*
X1413786Y-2845740D01*
X1442357Y-2831454D01*
X1485214Y-2831454D01*
X1513786Y-2845740D01*
X1528071Y-2874311D01*
X1528071Y-3031454D01*
X1670928Y-3031454D02*
X1670928Y-2831454D01*
X1670928Y-2860026D02*
X1685214Y-2845740D01*
X1713786Y-2831454D01*
X1756643Y-2831454D01*
X1785214Y-2845740D01*
X1799500Y-2874311D01*
X1799500Y-3031454D01*
X1799500Y-2874311D02*
X1813786Y-2845740D01*
X1842357Y-2831454D01*
X1885214Y-2831454D01*
X1913786Y-2845740D01*
X1928071Y-2874311D01*
X1928071Y-3031454D01*
X2513786Y-2717169D02*
X2256643Y-3102883D01*
X2899500Y-2731454D02*
X2928071Y-2731454D01*
X2956643Y-2745740D01*
X2970928Y-2760026D01*
X2985214Y-2788597D01*
X2999500Y-2845740D01*
X2999500Y-2917169D01*
X2985214Y-2974311D01*
X2970928Y-3002883D01*
X2956643Y-3017169D01*
X2928071Y-3031454D01*
X2899500Y-3031454D01*
X2870928Y-3017169D01*
X2856643Y-3002883D01*
X2842357Y-2974311D01*
X2828071Y-2917169D01*
X2828071Y-2845740D01*
X2842357Y-2788597D01*
X2856643Y-2760026D01*
X2870928Y-2745740D01*
X2899500Y-2731454D01*
X3128071Y-3002883D02*
X3142357Y-3017169D01*
X3128071Y-3031454D01*
X3113786Y-3017169D01*
X3128071Y-3002883D01*
X3128071Y-3031454D01*
X3328071Y-2731454D02*
X3356643Y-2731454D01*
X3385214Y-2745740D01*
X3399500Y-2760026D01*
X3413785Y-2788597D01*
X3428071Y-2845740D01*
X3428071Y-2917169D01*
X3413785Y-2974311D01*
X3399500Y-3002883D01*
X3385214Y-3017169D01*
X3356643Y-3031454D01*
X3328071Y-3031454D01*
X3299500Y-3017169D01*
X3285214Y-3002883D01*
X3270928Y-2974311D01*
X3256643Y-2917169D01*
X3256643Y-2845740D01*
X3270928Y-2788597D01*
X3285214Y-2760026D01*
X3299500Y-2745740D01*
X3328071Y-2731454D01*
X3542357Y-2760026D02*
X3556643Y-2745740D01*
X3585214Y-2731454D01*
X3656643Y-2731454D01*
X3685214Y-2745740D01*
X3699500Y-2760026D01*
X3713785Y-2788597D01*
X3713785Y-2817169D01*
X3699500Y-2860026D01*
X3528071Y-3031454D01*
X3713785Y-3031454D01*
X3899500Y-2731454D02*
X3928071Y-2731454D01*
X3956643Y-2745740D01*
X3970928Y-2760026D01*
X3985214Y-2788597D01*
X3999500Y-2845740D01*
X3999500Y-2917169D01*
X3985214Y-2974311D01*
X3970928Y-3002883D01*
X3956643Y-3017169D01*
X3928071Y-3031454D01*
X3899500Y-3031454D01*
X3870928Y-3017169D01*
X3856643Y-3002883D01*
X3842357Y-2974311D01*
X3828071Y-2917169D01*
X3828071Y-2845740D01*
X3842357Y-2788597D01*
X3856643Y-2760026D01*
X3870928Y-2745740D01*
X3899500Y-2731454D01*
X4113786Y-2731454D02*
X4113786Y-2788597D01*
X4228071Y-2731454D02*
X4228071Y-2788597D01*
X4670928Y-3145740D02*
X4656643Y-3131454D01*
X4628071Y-3088597D01*
X4613786Y-3060026D01*
X4599500Y-3017169D01*
X4585214Y-2945740D01*
X4585214Y-2888597D01*
X4599500Y-2817169D01*
X4613786Y-2774312D01*
X4628071Y-2745740D01*
X4656643Y-2702883D01*
X4670928Y-2688597D01*
X4756643Y-2731454D02*
X4942357Y-2731454D01*
X4842357Y-2845740D01*
X4885214Y-2845740D01*
X4913786Y-2860026D01*
X4928071Y-2874311D01*
X4942357Y-2902883D01*
X4942357Y-2974311D01*
X4928071Y-3002883D01*
X4913786Y-3017169D01*
X4885214Y-3031454D01*
X4799500Y-3031454D01*
X4770928Y-3017169D01*
X4756643Y-3002883D01*
X5199500Y-2831454D02*
X5199500Y-3031454D01*
X5128071Y-2717169D02*
X5056643Y-2931454D01*
X5242357Y-2931454D01*
X5585214Y-3031454D02*
X5585214Y-2731454D01*
X5713785Y-3031454D02*
X5713785Y-2874311D01*
X5699500Y-2845740D01*
X5670928Y-2831454D01*
X5628071Y-2831454D01*
X5599500Y-2845740D01*
X5585214Y-2860026D01*
X5899500Y-3031454D02*
X5870928Y-3017169D01*
X5856643Y-3002883D01*
X5842357Y-2974311D01*
X5842357Y-2888597D01*
X5856643Y-2860026D01*
X5870928Y-2845740D01*
X5899500Y-2831454D01*
X5942357Y-2831454D01*
X5970928Y-2845740D01*
X5985214Y-2860026D01*
X5999500Y-2888597D01*
X5999500Y-2974311D01*
X5985214Y-3002883D01*
X5970928Y-3017169D01*
X5942357Y-3031454D01*
X5899500Y-3031454D01*
X6170928Y-3031454D02*
X6142357Y-3017169D01*
X6128071Y-2988597D01*
X6128071Y-2731454D01*
X6399500Y-3017169D02*
X6370928Y-3031454D01*
X6313786Y-3031454D01*
X6285214Y-3017169D01*
X6270928Y-2988597D01*
X6270928Y-2874311D01*
X6285214Y-2845740D01*
X6313786Y-2831454D01*
X6370928Y-2831454D01*
X6399500Y-2845740D01*
X6413786Y-2874311D01*
X6413786Y-2902883D01*
X6270928Y-2931454D01*
X6528071Y-3017169D02*
X6556643Y-3031454D01*
X6613786Y-3031454D01*
X6642357Y-3017169D01*
X6656643Y-2988597D01*
X6656643Y-2974311D01*
X6642357Y-2945740D01*
X6613786Y-2931454D01*
X6570928Y-2931454D01*
X6542357Y-2917169D01*
X6528071Y-2888597D01*
X6528071Y-2874311D01*
X6542357Y-2845740D01*
X6570928Y-2831454D01*
X6613786Y-2831454D01*
X6642357Y-2845740D01*
X6756643Y-3145740D02*
X6770928Y-3131454D01*
X6799500Y-3088597D01*
X6813786Y-3060026D01*
X6828071Y-3017169D01*
X6842357Y-2945740D01*
X6842357Y-2888597D01*
X6828071Y-2817169D01*
X6813786Y-2774312D01*
X6799500Y-2745740D01*
X6770928Y-2702883D01*
X6756643Y-2688597D01*
M02*
