G04 #@! TF.FileFunction,Soldermask,Top*
%FSLAX46Y46*%
G04 Gerber Fmt 4.6, Leading zero omitted, Abs format (unit mm)*
G04 Created by KiCad (PCBNEW 4.0.2-stable) date 02-04-2017 12:22:52*
%MOMM*%
G01*
G04 APERTURE LIST*
%ADD10C,0.100000*%
%ADD11R,2.000000X1.360000*%
%ADD12R,2.000000X1.350000*%
%ADD13R,1.150000X1.200000*%
%ADD14R,1.200000X1.150000*%
%ADD15R,1.300000X0.900000*%
%ADD16R,0.900000X1.300000*%
%ADD17R,1.200000X0.654000*%
%ADD18R,0.654000X1.200000*%
%ADD19R,3.200000X2.300000*%
%ADD20R,1.360000X2.000000*%
%ADD21R,1.350000X2.000000*%
%ADD22C,0.254000*%
G04 APERTURE END LIST*
D10*
D11*
X15235200Y-7315200D03*
D12*
X15235200Y-6045200D03*
D13*
X4775200Y-12408600D03*
X4775200Y-10908600D03*
D14*
X4509200Y-6680200D03*
X3009200Y-6680200D03*
D13*
X12039600Y-10427400D03*
X12039600Y-8927400D03*
D14*
X11137200Y-3886200D03*
X12637200Y-3886200D03*
X4509200Y-8204200D03*
X3009200Y-8204200D03*
X7862000Y-2743200D03*
X6362000Y-2743200D03*
D13*
X13309600Y-9106600D03*
X13309600Y-7606600D03*
D15*
X9601200Y-3874200D03*
X9601200Y-2374200D03*
X12014200Y-7430200D03*
X12014200Y-5930200D03*
D16*
X11137200Y-2616200D03*
X12637200Y-2616200D03*
D17*
X6081200Y-6692200D03*
D18*
X6581200Y-5692200D03*
X7081200Y-5692200D03*
X7581200Y-5692200D03*
X8081200Y-5692200D03*
X8581200Y-5692200D03*
X9081200Y-5692200D03*
X9581200Y-5692200D03*
X10081200Y-5692200D03*
D17*
X10581200Y-6692200D03*
X10581200Y-7192200D03*
X10581200Y-7692200D03*
X10581200Y-8192200D03*
X6081200Y-7192200D03*
X6081200Y-7692200D03*
X6081200Y-8192200D03*
D18*
X10081200Y-9192200D03*
X9581200Y-9192200D03*
X9081200Y-9192200D03*
X8581200Y-9192200D03*
X8081200Y-9192200D03*
X7581200Y-9192200D03*
X7081200Y-9192200D03*
X6581200Y-9192200D03*
D19*
X8331200Y-7442200D03*
D11*
X792200Y-10998200D03*
D12*
X792200Y-12268200D03*
D11*
X15235200Y-10109200D03*
D12*
X15235200Y-8839200D03*
D20*
X5638800Y-792200D03*
D21*
X4368800Y-792200D03*
D20*
X9347200Y-792200D03*
D21*
X8077200Y-792200D03*
X12014200Y-14600200D03*
X3124200Y-14600200D03*
X4394200Y-14600200D03*
X10744200Y-14600200D03*
X9474200Y-14600200D03*
X5664200Y-14600200D03*
X6934200Y-14600200D03*
X8204200Y-14600200D03*
D11*
X792200Y-4267200D03*
D12*
X792200Y-5537200D03*
D16*
X13194600Y-12979400D03*
X14694600Y-12979400D03*
X13194600Y-11607800D03*
X14694600Y-11607800D03*
X2882200Y-2971800D03*
X4382200Y-2971800D03*
X2882200Y-4368800D03*
X4382200Y-4368800D03*
D22*
G36*
X10287000Y-8483600D02*
X6375400Y-8483600D01*
X6375400Y-6400800D01*
X10287000Y-6400800D01*
X10287000Y-8483600D01*
X10287000Y-8483600D01*
G37*
X10287000Y-8483600D02*
X6375400Y-8483600D01*
X6375400Y-6400800D01*
X10287000Y-6400800D01*
X10287000Y-8483600D01*
M02*
