M48
;DRILL file {KiCad 4.0.2-stable} date 02-04-2017 12:22:54
;FORMAT={-:-/ absolute / inch / decimal}
FMAT,2
INCH,TZ
T1C0.012
T2C0.020
%
G90
G05
M72
T1
X0.206Y-0.117
X0.206Y-0.154
X0.207Y-0.218
X0.231Y-0.403
X0.265Y-0.179
X0.268Y-0.403
X0.36Y-0.411
X0.392Y-0.428
X0.423Y-0.409
T2
X0.043Y-0.168
X0.043Y-0.218
X0.043Y-0.433
X0.043Y-0.483
X0.075Y-0.066
X0.075Y-0.098
X0.076Y-0.13
X0.1155Y-0.373
X0.123Y-0.563
X0.172Y-0.043
X0.173Y-0.563
X0.222Y-0.043
X0.223Y-0.563
X0.273Y-0.563
X0.288Y-0.273
X0.288Y-0.313
X0.318Y-0.043
X0.323Y-0.563
X0.328Y-0.273
X0.328Y-0.313
X0.368Y-0.043
X0.368Y-0.273
X0.368Y-0.313
X0.373Y-0.563
X0.423Y-0.563
X0.473Y-0.563
X0.518Y-0.233
X0.568Y-0.073
X0.568Y-0.113
X0.568Y-0.153
X0.588Y-0.238
X0.588Y-0.288
X0.588Y-0.348
X0.588Y-0.398
T0
M30
